<svg width="505" height="124" viewBox="0 0 505 124" fill="none" xmlns="http://www.w3.org/2000/svg">
<line y1="-1.5" x2="160" y2="-1.5" transform="matrix(0.707107 -0.707107 0.707439 0.706774 3 119.137)" stroke="black" stroke-width="3"/>
<line y1="-1.5" x2="160" y2="-1.5" transform="matrix(0.707107 0.707107 -0.707439 0.706774 3 6)" stroke="black" stroke-width="3"/>
<path fill-rule="evenodd" clip-rule="evenodd" d="M53.6101 88.9765C51.3238 89.5911 49.0523 90.2597 46.7976 90.9815C46.5935 91.0445 46.4114 91.1638 46.2721 91.3256C46.1328 91.4875 46.0419 91.6854 46.0101 91.8965C44.6776 101.639 47.7526 108.749 51.4201 113.432C53.2601 115.782 55.2526 117.522 56.9126 118.664C57.7451 119.234 58.4776 119.649 59.0551 119.914C59.3451 120.047 59.5801 120.137 59.7601 120.189C59.8394 120.215 59.9204 120.235 60.0026 120.249C60.0201 120.247 60.0976 120.237 60.2451 120.192C60.4251 120.137 60.6601 120.047 60.9501 119.914C61.5251 119.649 62.2626 119.234 63.0926 118.664C65.1741 117.204 67.0254 115.44 68.5851 113.432C72.2526 108.749 75.3276 101.639 73.9951 91.8965C73.9632 91.6854 73.8723 91.4875 73.733 91.3256C73.5937 91.1638 73.4116 91.0445 73.2076 90.9815C71.6426 90.4815 69.0026 89.6665 66.3951 88.9765C63.7301 88.274 61.2776 87.749 60.0026 87.749C58.7276 87.749 56.2776 88.274 53.6101 88.9765ZM52.9701 86.5615C55.5776 85.8715 58.3451 85.249 60.0026 85.249C61.6576 85.249 64.4276 85.8715 67.0351 86.5615C69.3608 87.1859 71.6714 87.8653 73.9651 88.599C75.2851 89.019 76.2801 90.1565 76.4726 91.559C77.9051 102.052 74.5826 109.827 70.5551 114.972C68.8388 117.18 66.8011 119.118 64.5101 120.722C63.7134 121.28 62.8713 121.77 61.9926 122.187C61.3176 122.497 60.5976 122.749 60.0026 122.749C59.4076 122.749 58.6876 122.497 58.0126 122.187C57.1336 121.77 56.2915 121.28 55.4951 120.722C53.2049 119.118 51.1681 117.179 49.4526 114.972C45.4201 109.827 42.1001 102.052 43.5326 91.559C43.6283 90.8792 43.9147 90.2404 44.3584 89.7165C44.8022 89.1927 45.3852 88.8052 46.0401 88.599C48.3337 87.8653 50.6443 87.186 52.9701 86.5615Z" fill="black"/>
<path d="M60 89.625C62.2725 89.625 67.97 91.3375 70.635 92.18C71.0645 92.3117 71.4472 92.5637 71.7379 92.9062C72.0285 93.2487 72.2149 93.6674 72.275 94.1125C74.31 110.173 61.95 117.743 60 117.743V89.625Z" fill="black"/>
<path d="M109.451 42.2869C106.783 41.9444 104.5 44.0231 104.5 46.625V47.875C104.5 49.8563 105.75 51.625 107.625 52.25V59.125C106.934 59.125 106.375 59.6844 106.375 60.375V67.25C106.375 68.065 106.898 68.7519 107.625 69.01V70.6875C107.625 74.3119 104.687 77.25 101.062 77.25C97.4381 77.25 94.5 74.3119 94.5 70.6875V62.875L87.625 74.75L92.465 73.54C93.6612 77.1462 97.055 79.75 101.062 79.75C106.068 79.75 110.125 75.6925 110.125 70.6875V69.01C110.852 68.7519 111.375 68.065 111.375 67.25V60.375C111.375 59.6844 110.816 59.125 110.125 59.125V52.25C111.931 51.7125 113.25 49.8563 113.25 47.875V46.7775C113.25 44.5538 111.656 42.57 109.451 42.2869ZM111.375 47.875C111.375 49.2538 110.254 50.375 108.875 50.375C107.496 50.375 106.375 49.2538 106.375 47.875V46.625C106.375 45.2463 107.496 44.125 108.875 44.125C110.254 44.125 111.375 45.2463 111.375 46.625V47.875Z" fill="black"/>
<path d="M37.0295 60.1227C37.1571 59.8487 38.029 58.693 38.8184 57.495C38.8192 57.4941 38.8198 57.4933 38.8202 57.4925C38.9984 57.2222 39.172 56.9499 39.3324 56.685C39.3369 56.6775 39.3414 56.67 39.3459 56.6625C39.3719 56.6194 41.2185 53.659 38.5884 54.8579C38.5884 54.8581 38.5882 54.8584 38.588 54.8586C38.0938 55.112 37.4653 55.4899 36.6751 56.0195C34.9512 57.1751 31.4446 58.8666 31.4446 58.8666C31.4446 58.8666 30.8344 59.1963 30.432 58.9451C28.3983 57.6765 25.4352 55.4228 21.5289 54.168C21.4638 54.147 21.3813 54.0974 21.4935 53.9935L23.1664 52.8236C23.1664 52.8236 23.2974 52.7103 23.1292 52.6556C22.3013 52.3858 18.853 51.2295 15.8693 52.2926C15.2615 52.5091 14.7626 52.6869 14.3524 52.8331C14.1761 52.896 13.9969 52.9699 13.6396 53.0141C5.50276 53.2923 0 59.2652 0 61.6279C0 63.2136 0.85495 64.2776 3.97876 65.7567C4.04146 65.7468 4.51832 66.0891 5.56588 65.7744C5.84667 65.69 7.84082 64.9389 7.92008 64.905C7.99956 64.8688 8.05115 64.8508 8.08407 64.8562C8.12643 64.8629 8.15757 64.9571 8.15736 64.9761C8.15075 65.541 7.09208 65.9984 6.49097 66.5003C6.3878 66.5485 6.36012 66.7881 6.54078 66.8656C6.54099 66.8656 8.66358 68.0037 12.0252 68.3576C12.297 68.3862 15.8354 70.6535 19.4036 70.0452C21.2908 69.7234 22.1889 69.6133 22.5987 69.5003C22.9565 69.4018 22.7857 69.2883 22.7857 69.2883L20.997 67.8632C20.8759 67.7289 20.9739 67.6257 21.0752 67.597C25.0472 66.4668 28.1877 64.6852 30.058 63.1589C30.3098 62.9533 30.9644 63.4421 31.4317 63.6782C32.9836 64.4622 39.4253 67.1176 39.9562 66.5555C40.0019 66.5081 40.0051 66.4375 39.9586 66.3405C39.0522 64.4366 35.776 62.8125 37.0295 60.1227ZM6.58827 59.9393C6.01527 59.9393 5.55078 59.4662 5.55078 58.8828C5.55078 58.2993 6.01527 57.8263 6.58827 57.8263C7.16128 57.8263 7.62587 58.2993 7.62587 58.8828C7.62587 59.4662 7.16128 59.9393 6.58827 59.9393ZM11.2314 65.9507C11.1675 66.0081 11.1093 66.0947 11.1431 65.9701C11.1431 65.9701 12.7605 63.5365 12.9702 60.3909C13.1273 58.0335 11.5566 55.1463 11.5566 55.1463C11.5566 55.1463 11.5596 55.062 11.6148 55.1286C12.174 55.8049 17.6797 60.1549 11.2314 65.9507Z" fill="black"/>
<g clip-path="url(#clip0)">
<path d="M64.5058 3.45239L61.6494 6.08229C60.999 6.67613 60.0093 6.67613 59.3589 6.08229L56.4744 3.48067C55.5978 2.68887 54.2122 2.99993 53.7597 4.07451L51.4126 9.73021H69.5674L67.2203 4.04623C66.7681 2.97194 65.3822 2.66087 64.5058 3.45239Z" fill="black"/>
<path d="M46.0396 14.8954C45.2195 15.2913 45.5306 16.5073 46.4072 16.5073H60.4899H74.5446C75.4493 16.5073 75.732 15.2913 74.9402 14.8954L71.4903 13.1139H49.4896L46.0396 14.8954Z" fill="black"/>
<path d="M43.1552 28.4993L44.6539 36.6438C44.7953 37.4636 45.5023 38.0011 46.3224 38.0011H60.4899H74.686C75.5058 38.0011 76.2127 37.4356 76.3541 36.6438L77.8529 28.4993C77.9943 27.7075 77.5701 26.9157 76.8069 26.6049C73.1869 25.191 69.3979 24.4275 66.4001 23.9747C65.6368 23.8619 64.9013 24.2861 64.6185 24.9645L61.7624 31.4402C61.2534 32.5714 59.6415 32.5714 59.1605 31.412L56.3892 24.9927C56.0782 24.2858 55.3429 23.8616 54.5794 23.9744C51.5819 24.3986 47.7926 25.1907 44.2012 26.6046C43.438 26.8877 42.9855 27.6795 43.1552 28.4993Z" fill="black"/>
</g>
<path d="M151.484 113.203C151.095 113.068 150.266 113 148.996 113H138.637C137.757 113 137.054 112.865 136.529 112.594C136.005 112.306 135.742 111.79 135.742 111.045C135.742 110.503 135.869 110.072 136.123 109.75C136.766 109.919 137.384 110.004 137.977 110.004C138.569 110.004 139.035 109.945 139.373 109.826C139.712 109.691 140.008 109.462 140.262 109.141C140.77 108.464 141.023 107.338 141.023 105.764V79.7891C140.973 78.6042 140.583 77.8509 139.855 77.5293C139.635 77.4277 139.331 77.3346 138.941 77.25C138.569 77.1654 138.197 77.0807 137.824 76.9961C137.469 76.8945 137.164 76.776 136.91 76.6406C136.402 76.3698 136.148 76.0143 136.148 75.5742C136.148 74.7786 136.284 74.2116 136.555 73.873C136.944 74.0085 137.782 74.0762 139.068 74.0762H142.369L151.281 73.8223L152.373 73.7969C157.587 73.7969 161.488 74.7279 164.078 76.5898C166.668 78.4349 167.963 81.0417 167.963 84.4102C167.963 86.9323 167.142 89.2513 165.5 91.3672C163.672 93.7201 161.15 95.3112 157.934 96.1406C158.814 96.75 159.812 97.8672 160.93 99.4922L163.621 103.428C166.143 107.101 168.234 108.938 169.893 108.938C170.519 108.938 170.993 108.878 171.314 108.76L171.949 108.506C172.085 108.455 172.237 108.43 172.406 108.43C172.576 108.43 172.753 108.565 172.939 108.836C173.126 109.09 173.219 109.386 173.219 109.725C173.219 110.063 173.075 110.469 172.787 110.943C172.499 111.4 172.093 111.815 171.568 112.188C170.383 113.051 169.089 113.482 167.684 113.482C166.279 113.482 165.119 113.245 164.205 112.771C163.308 112.298 162.479 111.68 161.717 110.918C160.972 110.139 160.286 109.259 159.66 108.277C159.051 107.296 158.475 106.288 157.934 105.256L156.436 102.234C155.369 100.034 154.514 98.6204 153.871 97.9941C153.245 97.3509 152.669 97.0293 152.145 97.0293H149.58C149.157 97.0293 148.945 96.7246 148.945 96.1152C148.945 95.2689 149.267 94.6087 149.91 94.1348C150.13 93.9824 150.79 93.8978 151.891 93.8809C152.991 93.847 154.227 93.61 155.598 93.1699C156.986 92.7298 158.128 92.1289 159.025 91.3672C160.769 89.8607 161.641 87.7448 161.641 85.0195C161.641 82.7344 160.879 80.8639 159.355 79.4082C157.629 77.7663 155.225 76.9284 152.145 76.8945C150.113 76.8945 148.759 77.1992 148.082 77.8086C147.405 78.3841 147.049 79.4759 147.016 81.084V107.008C147.016 108.345 147.388 109.191 148.133 109.547C148.37 109.648 148.683 109.742 149.072 109.826C149.462 109.911 149.834 110.004 150.189 110.105C150.562 110.19 150.875 110.3 151.129 110.436C151.637 110.706 151.891 111.07 151.891 111.527C151.891 112.306 151.755 112.865 151.484 113.203ZM203.967 101.701C204.424 101.312 204.906 101.117 205.414 101.117C206.193 101.117 206.641 101.227 206.76 101.447C207.42 102.768 207.75 104.951 207.75 107.998C207.75 110.114 207.513 111.646 207.039 112.594C206.887 112.865 206.726 113 206.557 113H178.525C176.511 113 175.504 112.399 175.504 111.197C175.504 110.554 175.639 110.063 175.91 109.725C176.486 109.894 177.044 109.979 177.586 109.979C178.128 109.979 178.593 109.936 178.982 109.852C179.372 109.767 179.736 109.589 180.074 109.318C180.887 108.692 181.293 107.634 181.293 106.145V80.4238C181.293 78.9512 180.701 78.0117 179.516 77.6055C179.177 77.487 178.822 77.3854 178.449 77.3008C178.094 77.1992 177.747 77.1061 177.408 77.0215C177.087 76.9199 176.799 76.8099 176.545 76.6914C175.969 76.3867 175.682 75.972 175.682 75.4473C175.682 74.7533 175.817 74.2539 176.088 73.9492C176.393 74.0339 176.697 74.0762 177.002 74.0762H202.977C204.534 74.0762 205.507 74.2201 205.896 74.5078C206.607 75.0156 206.963 76.1328 206.963 77.8594C206.963 79.5182 206.819 80.8724 206.531 81.9219C206.26 82.9714 206.066 83.5977 205.947 83.8008C205.778 84.1055 205.448 84.2578 204.957 84.2578C204.246 84.2578 203.755 84.1732 203.484 84.0039C203.23 83.8177 203.095 83.6823 203.078 83.5977C202.858 81.1771 202.477 79.6367 201.936 78.9766C201.394 78.2995 200.751 77.8424 200.006 77.6055C199.278 77.3516 198.322 77.2246 197.137 77.2246H191.475C189.68 77.2246 188.58 77.4023 188.174 77.7578C187.785 78.1133 187.539 78.528 187.438 79.002C187.336 79.459 187.285 80.0514 187.285 80.7793V91.5957L188.783 91.6211C192.524 91.6211 195.994 91.291 199.193 90.6309C199.43 90.7493 199.642 91.0879 199.828 91.6465C200.014 92.1882 200.107 92.7298 200.107 93.2715C200.107 94.1855 199.955 94.9811 199.65 95.6582C198.533 95.7598 197.247 95.8105 195.791 95.8105C194.335 95.8105 191.5 95.5736 187.285 95.0996V106.551C187.285 107.82 187.624 108.675 188.301 109.115C188.876 109.488 189.909 109.674 191.398 109.674L195.232 109.572C198.939 109.437 201.352 108.921 202.469 108.023C203.095 107.516 203.51 106.847 203.713 106.018C203.916 105.188 204.018 104.359 204.018 103.529C204.018 102.683 204.001 102.074 203.967 101.701ZM234.588 84.791C234.588 80.9147 233.208 78.4857 230.449 77.5039C229.501 77.1654 228.393 76.9961 227.123 76.9961C225.854 76.9961 224.762 77.14 223.848 77.4277C222.934 77.7155 222.172 78.1048 221.562 78.5957C220.327 79.5944 219.709 80.9147 219.709 82.5566C219.709 85.0449 221.537 87.1693 225.193 88.9297L228.367 90.4277C229.908 91.1387 231.389 91.8665 232.811 92.6113C234.249 93.3392 235.519 94.1771 236.619 95.125C239.04 97.1901 240.25 99.7461 240.25 102.793C240.25 106.06 238.828 108.692 235.984 110.689C233.327 112.551 229.992 113.482 225.98 113.482C222.798 113.482 219.988 112.983 217.551 111.984C215.757 111.273 214.479 110.266 213.717 108.963C213.327 108.303 213.133 107.499 213.133 106.551C213.133 104.655 213.607 102.886 214.555 101.244C214.876 100.855 215.316 100.66 215.875 100.66C216.958 100.66 217.585 100.982 217.754 101.625C217.974 104.553 218.871 106.686 220.445 108.023C222.036 109.361 224.254 110.029 227.098 110.029C230.365 110.029 232.557 108.963 233.674 106.83C234.063 106.085 234.258 105.214 234.258 104.215C234.258 103.199 233.987 102.294 233.445 101.498C232.904 100.702 232.184 99.9661 231.287 99.2891C229.916 98.2734 228.096 97.2917 225.828 96.3438C223.577 95.3958 221.816 94.5664 220.547 93.8555C219.294 93.1445 218.186 92.3151 217.221 91.3672C215.122 89.3021 214.072 86.7546 214.072 83.7246C214.072 80.627 215.401 78.1471 218.059 76.2852C220.615 74.4909 223.915 73.5938 227.961 73.5938C233.09 73.5938 236.441 74.6517 238.016 76.7676C238.591 77.5293 238.879 78.528 238.879 79.7637C238.879 80.9993 238.76 82.0742 238.523 82.9883C238.303 83.9023 238.083 84.4948 237.863 84.7656C237.491 85.2227 236.848 85.4512 235.934 85.4512C235.036 85.4512 234.588 85.2311 234.588 84.791ZM262.111 113.203C261.722 113.068 260.884 113 259.598 113H249.01C248.13 113 247.427 112.865 246.902 112.594C246.378 112.306 246.115 111.79 246.115 111.045C246.115 110.503 246.242 110.072 246.496 109.75C247.173 109.919 247.791 110.004 248.35 110.004C248.925 110.004 249.374 109.945 249.695 109.826C250.034 109.708 250.322 109.496 250.559 109.191C251.083 108.548 251.363 107.49 251.396 106.018V80.0684C251.396 78.7311 251.024 77.8932 250.279 77.5547C250.042 77.4362 249.721 77.3346 249.314 77.25C248.908 77.1654 248.502 77.0807 248.096 76.9961C247.706 76.8945 247.376 76.776 247.105 76.6406C246.564 76.3698 246.293 75.9128 246.293 75.2695C246.293 74.6432 246.42 74.1777 246.674 73.873C247.063 74.0085 247.901 74.0762 249.188 74.0762H259.521C260.402 74.0762 261.104 74.2201 261.629 74.5078C262.171 74.7786 262.441 75.2865 262.441 76.0312C262.441 76.5898 262.306 77.0215 262.035 77.3262C261.392 77.1569 260.689 77.0723 259.928 77.0723C258.286 77.0723 257.439 78.4095 257.389 81.084V107.008C257.389 108.345 257.761 109.191 258.506 109.547C258.743 109.648 259.064 109.742 259.471 109.826C259.877 109.911 260.275 110.004 260.664 110.105C261.07 110.19 261.409 110.3 261.68 110.436C262.238 110.723 262.518 111.18 262.518 111.807C262.518 112.399 262.382 112.865 262.111 113.203ZM289.939 84.791C289.939 80.9147 288.56 78.4857 285.801 77.5039C284.853 77.1654 283.744 76.9961 282.475 76.9961C281.205 76.9961 280.113 77.14 279.199 77.4277C278.285 77.7155 277.523 78.1048 276.914 78.5957C275.678 79.5944 275.061 80.9147 275.061 82.5566C275.061 85.0449 276.889 87.1693 280.545 88.9297L283.719 90.4277C285.259 91.1387 286.74 91.8665 288.162 92.6113C289.601 93.3392 290.87 94.1771 291.971 95.125C294.391 97.1901 295.602 99.7461 295.602 102.793C295.602 106.06 294.18 108.692 291.336 110.689C288.678 112.551 285.344 113.482 281.332 113.482C278.15 113.482 275.34 112.983 272.902 111.984C271.108 111.273 269.83 110.266 269.068 108.963C268.679 108.303 268.484 107.499 268.484 106.551C268.484 104.655 268.958 102.886 269.906 101.244C270.228 100.855 270.668 100.66 271.227 100.66C272.31 100.66 272.936 100.982 273.105 101.625C273.326 104.553 274.223 106.686 275.797 108.023C277.388 109.361 279.605 110.029 282.449 110.029C285.716 110.029 287.908 108.963 289.025 106.83C289.415 106.085 289.609 105.214 289.609 104.215C289.609 103.199 289.339 102.294 288.797 101.498C288.255 100.702 287.536 99.9661 286.639 99.2891C285.268 98.2734 283.448 97.2917 281.18 96.3438C278.928 95.3958 277.168 94.5664 275.898 93.8555C274.646 93.1445 273.537 92.3151 272.572 91.3672C270.473 89.3021 269.424 86.7546 269.424 83.7246C269.424 80.627 270.753 78.1471 273.41 76.2852C275.966 74.4909 279.267 73.5938 283.312 73.5938C288.441 73.5938 291.793 74.6517 293.367 76.7676C293.943 77.5293 294.23 78.528 294.23 79.7637C294.23 80.9993 294.112 82.0742 293.875 82.9883C293.655 83.9023 293.435 84.4948 293.215 84.7656C292.842 85.2227 292.199 85.4512 291.285 85.4512C290.388 85.4512 289.939 85.2311 289.939 84.791ZM328.381 113.203C327.992 113.068 327.154 113 325.867 113H311.344C310.464 113 309.753 112.865 309.211 112.594C308.686 112.306 308.424 111.79 308.424 111.045C308.424 110.52 308.559 110.089 308.83 109.75C309.473 109.919 310.083 110.004 310.658 110.004C311.234 110.004 311.775 109.945 312.283 109.826C312.791 109.708 313.273 109.496 313.73 109.191C314.814 108.497 315.389 107.439 315.457 106.018V77.7832H312.156C309.702 77.7832 308.094 77.9017 307.332 78.1387C306.587 78.3587 306.02 78.6465 305.631 79.002C305.258 79.3574 304.954 79.8398 304.717 80.4492C304.294 81.4987 303.964 83.3099 303.727 85.8828C303.354 85.9674 303.016 86.0098 302.711 86.0098C302.034 86.0098 301.602 85.832 301.416 85.4766C301.23 85.1211 301.103 84.7572 301.035 84.3848C300.967 83.9954 300.917 83.5723 300.883 83.1152C300.815 82.2012 300.781 81.2279 300.781 80.1953C300.781 77.3685 301.001 75.5742 301.441 74.8125C301.882 74 302.762 73.5938 304.082 73.5938C304.336 73.5938 304.708 73.6191 305.199 73.6699C305.69 73.7207 306.401 73.7799 307.332 73.8477C309.854 74 312.876 74.0762 316.396 74.0762H320.688C325.596 74.0762 328.88 74 330.539 73.8477C332.198 73.6784 333.23 73.5938 333.637 73.5938C334.043 73.5938 334.415 73.653 334.754 73.7715C335.092 73.89 335.363 74.0592 335.566 74.2793C335.888 74.6517 336.049 75.1172 336.049 75.6758C336.049 76.5221 336.023 77.1992 335.973 77.707C335.922 78.2148 335.863 78.8158 335.795 79.5098C335.744 80.2038 335.668 80.9232 335.566 81.668C335.329 83.4284 335.033 84.6387 334.678 85.2988C334.339 85.7728 333.924 86.0098 333.434 86.0098C332.96 86.0098 332.536 85.9674 332.164 85.8828L332.189 84.2832C332.189 82.7767 332.105 81.5918 331.936 80.7285C331.766 79.8483 331.411 79.1966 330.869 78.7734C330.327 78.3333 329.549 78.0625 328.533 77.9609C327.518 77.8424 326.163 77.7832 324.471 77.7832H321.424V107.008C321.424 108.227 322.397 109.073 324.344 109.547C324.818 109.648 325.266 109.742 325.689 109.826C326.13 109.911 326.553 110.004 326.959 110.105C327.365 110.19 327.704 110.3 327.975 110.436C328.516 110.706 328.787 111.163 328.787 111.807C328.787 112.399 328.652 112.865 328.381 113.203ZM364.461 110.004C365.172 110.122 365.705 110.182 366.061 110.182C366.416 110.182 366.763 110.148 367.102 110.08C367.457 109.995 367.77 109.868 368.041 109.699C368.65 109.327 368.955 108.743 368.955 107.947C368.955 107.287 368.752 106.551 368.346 105.738L365.959 99.8223H349.887L347.043 107.033C346.772 107.693 346.637 108.176 346.637 108.48C346.637 108.768 346.679 108.988 346.764 109.141C346.865 109.276 347.009 109.395 347.195 109.496C347.398 109.598 347.644 109.682 347.932 109.75L348.973 110.029C350.09 110.215 350.809 110.385 351.131 110.537C351.791 110.859 352.121 111.333 352.121 111.959C352.121 112.416 351.994 112.805 351.74 113.127C351.419 113.042 351.122 113 350.852 113H340.518C338.266 113 337.141 112.382 337.141 111.146C337.141 110.571 337.268 110.105 337.521 109.75C338.148 109.919 338.673 110.004 339.096 110.004C339.536 110.004 339.9 109.936 340.188 109.801C340.492 109.665 340.78 109.437 341.051 109.115C341.508 108.557 342.041 107.439 342.65 105.764L355.193 75.3965C355.549 74.584 356.556 74.0254 358.215 73.7207C358.672 73.6361 359.154 73.5938 359.662 73.5938C360.695 73.5938 361.329 73.873 361.566 74.4316L364.105 80.7793C368.997 92.3236 371.824 99.0605 372.586 100.99L374.871 106.982C375.328 108.286 375.709 109.09 376.014 109.395C376.318 109.699 376.648 109.911 377.004 110.029C377.359 110.148 377.723 110.249 378.096 110.334C378.485 110.402 378.824 110.495 379.111 110.613C379.755 110.901 380.076 111.341 380.076 111.934C380.076 112.391 379.949 112.78 379.695 113.102C379.374 113.017 379.086 112.975 378.832 112.975H366.721C365.857 112.975 365.18 112.873 364.689 112.67C364.215 112.45 363.979 112.12 363.979 111.68C363.979 110.918 364.139 110.359 364.461 110.004ZM364.486 96.2168L357.834 79.7637L351.309 96.2168H364.486ZM385.104 113C382.835 113 381.701 112.348 381.701 111.045C381.701 110.452 381.837 110.038 382.107 109.801C382.598 109.936 383.106 110.004 383.631 110.004C384.173 110.004 384.638 109.936 385.027 109.801C385.434 109.665 385.789 109.471 386.094 109.217C386.703 108.692 387.008 107.956 387.008 107.008V79.3574C386.974 78.6803 386.83 78.1725 386.576 77.834C386.322 77.4954 385.941 77.2585 385.434 77.123C384.926 76.9707 384.503 76.8607 384.164 76.793C383.842 76.7253 383.546 76.6406 383.275 76.5391C382.683 76.2852 382.387 75.972 382.387 75.5996C382.387 74.821 382.514 74.2708 382.768 73.9492C383.123 74.0339 383.665 74.0762 384.393 74.0762H389.344C390.833 74.0762 392.171 74.8294 393.355 76.3359L414.709 103.402V79.7129C414.692 79.0358 414.548 78.4688 414.277 78.0117C414.023 77.5547 413.583 77.25 412.957 77.0977C412.348 76.9453 411.806 76.8353 411.332 76.7676C410.858 76.6829 410.435 76.5729 410.062 76.4375C409.267 76.1667 408.869 75.7266 408.869 75.1172C408.869 74.6094 409.005 74.2201 409.275 73.9492C409.631 74.0339 410.173 74.0762 410.9 74.0762H421.133C423.401 74.0762 424.535 74.5586 424.535 75.5234C424.535 76.3359 424.408 76.8861 424.154 77.1738C423.731 77.0553 423.24 76.9961 422.682 76.9961C422.14 76.9961 421.666 77.013 421.26 77.0469C420.854 77.0638 420.49 77.1654 420.168 77.3516C419.457 77.7409 419.085 78.5365 419.051 79.7383V112.289C419.051 112.78 418.915 113.076 418.645 113.178C418.374 113.296 417.883 113.355 417.172 113.355C415.97 113.355 414.684 112.467 413.312 110.689L391.35 83.0645V107.363C391.434 108.819 392.12 109.716 393.406 110.055C393.897 110.156 394.38 110.241 394.854 110.309C395.344 110.376 395.776 110.461 396.148 110.562C397.012 110.783 397.443 111.172 397.443 111.73C397.443 112.34 397.316 112.805 397.062 113.127C396.707 113.042 396.165 113 395.438 113H385.104ZM454.141 85.0703C454.208 84.5964 454.242 83.9023 454.242 82.9883C454.242 82.0742 454.064 81.2448 453.709 80.5C453.354 79.7383 452.871 79.1458 452.262 78.7227C451.195 77.9948 449.587 77.6309 447.438 77.6309C445.305 77.6309 443.417 78.0202 441.775 78.7988C440.15 79.5605 438.788 80.6354 437.688 82.0234C435.47 84.8164 434.361 88.6165 434.361 93.4238C434.361 97.9772 435.487 101.608 437.738 104.316C440.074 107.143 443.231 108.557 447.209 108.557C451.119 108.557 454.166 107.702 456.35 105.992C457.01 105.484 457.611 104.934 458.152 104.342C458.66 104.494 459.075 104.943 459.396 105.688C459.498 105.941 459.549 106.28 459.549 106.703C459.549 107.109 459.244 107.719 458.635 108.531C458.042 109.327 457.171 110.097 456.02 110.842C453.277 112.636 449.993 113.533 446.168 113.533C440.684 113.533 436.316 111.866 433.066 108.531C429.85 105.264 428.242 100.889 428.242 95.4043C428.242 92.0527 428.775 89.0312 429.842 86.3398C430.908 83.6484 432.364 81.3633 434.209 79.4844C436.054 77.5885 438.204 76.1328 440.658 75.1172C443.13 74.1016 445.525 73.5938 447.844 73.5938C450.18 73.5938 452.05 73.7884 453.455 74.1777C454.86 74.5671 456.028 75.1003 456.959 75.7773C458.821 77.1654 459.752 79.0104 459.752 81.3125C459.752 83.0729 459.1 84.3171 457.797 85.0449C457.357 85.2988 456.883 85.4258 456.375 85.4258C455.326 85.4258 454.581 85.3073 454.141 85.0703ZM492.963 101.701C493.42 101.312 493.902 101.117 494.41 101.117C495.189 101.117 495.637 101.227 495.756 101.447C496.416 102.768 496.746 104.951 496.746 107.998C496.746 110.114 496.509 111.646 496.035 112.594C495.883 112.865 495.722 113 495.553 113H467.521C465.507 113 464.5 112.399 464.5 111.197C464.5 110.554 464.635 110.063 464.906 109.725C465.482 109.894 466.04 109.979 466.582 109.979C467.124 109.979 467.589 109.936 467.979 109.852C468.368 109.767 468.732 109.589 469.07 109.318C469.883 108.692 470.289 107.634 470.289 106.145V80.4238C470.289 78.9512 469.697 78.0117 468.512 77.6055C468.173 77.487 467.818 77.3854 467.445 77.3008C467.09 77.1992 466.743 77.1061 466.404 77.0215C466.083 76.9199 465.795 76.8099 465.541 76.6914C464.965 76.3867 464.678 75.972 464.678 75.4473C464.678 74.7533 464.813 74.2539 465.084 73.9492C465.389 74.0339 465.693 74.0762 465.998 74.0762H491.973C493.53 74.0762 494.503 74.2201 494.893 74.5078C495.604 75.0156 495.959 76.1328 495.959 77.8594C495.959 79.5182 495.815 80.8724 495.527 81.9219C495.257 82.9714 495.062 83.5977 494.943 83.8008C494.774 84.1055 494.444 84.2578 493.953 84.2578C493.242 84.2578 492.751 84.1732 492.48 84.0039C492.227 83.8177 492.091 83.6823 492.074 83.5977C491.854 81.1771 491.473 79.6367 490.932 78.9766C490.39 78.2995 489.747 77.8424 489.002 77.6055C488.274 77.3516 487.318 77.2246 486.133 77.2246H480.471C478.676 77.2246 477.576 77.4023 477.17 77.7578C476.781 78.1133 476.535 78.528 476.434 79.002C476.332 79.459 476.281 80.0514 476.281 80.7793V91.5957L477.779 91.6211C481.52 91.6211 484.99 91.291 488.189 90.6309C488.426 90.7493 488.638 91.0879 488.824 91.6465C489.01 92.1882 489.104 92.7298 489.104 93.2715C489.104 94.1855 488.951 94.9811 488.646 95.6582C487.529 95.7598 486.243 95.8105 484.787 95.8105C483.331 95.8105 480.496 95.5736 476.281 95.0996V106.551C476.281 107.82 476.62 108.675 477.297 109.115C477.872 109.488 478.905 109.674 480.395 109.674L484.229 109.572C487.936 109.437 490.348 108.921 491.465 108.023C492.091 107.516 492.506 106.847 492.709 106.018C492.912 105.188 493.014 104.359 493.014 103.529C493.014 102.683 492.997 102.074 492.963 101.701Z" fill="black"/>
<path d="M154.201 48.2031C153.812 48.0677 152.974 48 151.688 48H138.637C137.757 48 137.054 47.8646 136.529 47.5938C136.005 47.306 135.742 46.7897 135.742 46.0449C135.742 45.5033 135.869 45.0716 136.123 44.75C136.766 44.9193 137.384 45.0039 137.977 45.0039C138.569 45.0039 139.035 44.9447 139.373 44.8262C139.712 44.6908 140.008 44.4622 140.262 44.1406C140.77 43.4635 141.023 42.3379 141.023 40.7637V15.2715C141.023 13.6973 140.092 12.7155 138.23 12.3262C137.062 12.0892 136.301 11.8184 135.945 11.5137C135.59 11.209 135.412 10.8789 135.412 10.5234C135.412 9.74479 135.548 9.22005 135.818 8.94922C136.123 9.03385 136.402 9.07617 136.656 9.07617H142.953L151.992 8.82227C159.914 8.82227 164.924 10.9805 167.023 15.2969C167.785 16.8542 168.166 18.4115 168.166 19.9688C168.166 21.526 168.056 22.8548 167.836 23.9551C167.616 25.0553 167.235 26.1302 166.693 27.1797C166.169 28.2122 165.466 29.194 164.586 30.125C163.706 31.0391 162.605 31.8431 161.285 32.5371C158.424 34.0267 154.768 34.7715 150.316 34.7715H149.352C148.878 34.7715 148.641 34.4668 148.641 33.8574C148.641 32.5202 149.005 31.7669 149.732 31.5977C156.097 31.7331 159.948 29.8372 161.285 25.9102C161.691 24.6745 161.895 23.3542 161.895 21.9492C161.895 20.5443 161.742 19.2578 161.438 18.0898C161.133 16.9049 160.583 15.8555 159.787 14.9414C158.027 12.944 155.115 11.9453 151.053 11.9453C149.411 11.9453 148.319 12.3008 147.777 13.0117C147.27 13.638 147.016 14.9076 147.016 16.8203V42.1855C147.1 43.5059 148.15 44.3099 150.164 44.5977C151.975 44.8516 153.101 45.0885 153.541 45.3086C153.981 45.5286 154.269 45.7487 154.404 45.9688C154.54 46.1719 154.607 46.4258 154.607 46.7305C154.607 47.3737 154.472 47.8646 154.201 48.2031ZM187.996 48.2031C187.607 48.0677 186.769 48 185.482 48H174.895C174.014 48 173.312 47.8646 172.787 47.5938C172.262 47.306 172 46.7897 172 46.0449C172 45.5033 172.127 45.0716 172.381 44.75C173.058 44.9193 173.684 45.0039 174.26 45.0039C174.835 45.0039 175.292 44.9447 175.631 44.8262C175.969 44.6908 176.266 44.4622 176.52 44.1406C177.027 43.4635 177.281 42.3379 177.281 40.7637V14.7891C177.23 13.6042 176.841 12.8509 176.113 12.5293C175.893 12.4277 175.589 12.3346 175.199 12.25L173.98 11.9961C173.151 11.793 172.643 11.5475 172.457 11.2598C172.271 10.9551 172.178 10.6504 172.178 10.3457C172.178 9.7194 172.305 9.22852 172.559 8.87305C172.948 9.00846 173.786 9.07617 175.072 9.07617H185.406C186.286 9.07617 186.989 9.22005 187.514 9.50781C188.055 9.77865 188.326 10.2865 188.326 11.0312C188.326 11.5898 188.191 12.0215 187.92 12.3262C187.277 12.1569 186.574 12.0723 185.812 12.0723C184.171 12.0723 183.324 13.4095 183.273 16.084V27.3066H203.586V14.7891C203.535 13.6042 203.146 12.8509 202.418 12.5293C202.198 12.4277 201.893 12.3346 201.504 12.25L200.285 11.9961C199.456 11.793 198.948 11.5475 198.762 11.2598C198.576 10.9551 198.482 10.6504 198.482 10.3457C198.482 9.66862 198.609 9.17773 198.863 8.87305C199.253 9.00846 200.09 9.07617 201.377 9.07617H211.711C212.591 9.07617 213.294 9.22005 213.818 9.50781C214.36 9.77865 214.631 10.2865 214.631 11.0312C214.631 11.5898 214.495 12.0215 214.225 12.3262C213.581 12.1569 212.879 12.0723 212.117 12.0723C210.475 12.0723 209.629 13.4095 209.578 16.084V42.0078C209.578 42.9557 209.722 43.582 210.01 43.8867C210.433 44.3438 210.958 44.64 211.584 44.7754C212.21 44.8939 212.727 45.0039 213.133 45.1055C213.539 45.1901 213.878 45.3001 214.148 45.4355C214.69 45.7064 214.961 46.1634 214.961 46.8066C214.961 47.3991 214.826 47.8646 214.555 48.2031C214.165 48.0677 213.327 48 212.041 48H201.453C200.573 48 199.87 47.8646 199.346 47.5938C198.821 47.306 198.559 46.7897 198.559 46.0449C198.559 45.5033 198.686 45.0716 198.939 44.75C199.583 44.9193 200.184 45.0039 200.742 45.0039C201.301 45.0039 201.732 44.9447 202.037 44.8262C202.342 44.7077 202.604 44.4961 202.824 44.1914C203.298 43.5651 203.552 42.5072 203.586 41.0176V30.8105H183.273V42.0078C183.273 43.3451 183.646 44.1914 184.391 44.5469C184.628 44.6484 184.949 44.7415 185.355 44.8262C185.762 44.9108 186.16 45.0039 186.549 45.1055C186.955 45.1901 187.294 45.3001 187.564 45.4355C188.123 45.7233 188.402 46.1803 188.402 46.8066C188.402 47.3991 188.267 47.8646 187.996 48.2031ZM236.061 48.2031C235.671 48.0677 234.833 48 233.547 48H222.959C222.079 48 221.376 47.8646 220.852 47.5938C220.327 47.306 220.064 46.7897 220.064 46.0449C220.064 45.5033 220.191 45.0716 220.445 44.75C221.122 44.9193 221.74 45.0039 222.299 45.0039C222.874 45.0039 223.323 44.9447 223.645 44.8262C223.983 44.7077 224.271 44.4961 224.508 44.1914C225.033 43.5482 225.312 42.4902 225.346 41.0176V15.0684C225.346 13.7311 224.973 12.8932 224.229 12.5547C223.992 12.4362 223.67 12.3346 223.264 12.25C222.857 12.1654 222.451 12.0807 222.045 11.9961C221.656 11.8945 221.326 11.776 221.055 11.6406C220.513 11.3698 220.242 10.9128 220.242 10.2695C220.242 9.64323 220.369 9.17773 220.623 8.87305C221.012 9.00846 221.85 9.07617 223.137 9.07617H233.471C234.351 9.07617 235.053 9.22005 235.578 9.50781C236.12 9.77865 236.391 10.2865 236.391 11.0312C236.391 11.5898 236.255 12.0215 235.984 12.3262C235.341 12.1569 234.639 12.0723 233.877 12.0723C232.235 12.0723 231.389 13.4095 231.338 16.084V42.0078C231.338 43.3451 231.71 44.1914 232.455 44.5469C232.692 44.6484 233.014 44.7415 233.42 44.8262C233.826 44.9108 234.224 45.0039 234.613 45.1055C235.02 45.1901 235.358 45.3001 235.629 45.4355C236.188 45.7233 236.467 46.1803 236.467 46.8066C236.467 47.3991 236.331 47.8646 236.061 48.2031ZM263.889 19.791C263.889 15.9147 262.509 13.4857 259.75 12.5039C258.802 12.1654 257.693 11.9961 256.424 11.9961C255.154 11.9961 254.062 12.14 253.148 12.4277C252.234 12.7155 251.473 13.1048 250.863 13.5957C249.628 14.5944 249.01 15.9147 249.01 17.5566C249.01 20.0449 250.838 22.1693 254.494 23.9297L257.668 25.4277C259.208 26.1387 260.689 26.8665 262.111 27.6113C263.55 28.3392 264.82 29.1771 265.92 30.125C268.34 32.1901 269.551 34.7461 269.551 37.793C269.551 41.0599 268.129 43.6921 265.285 45.6895C262.628 47.5514 259.293 48.4824 255.281 48.4824C252.099 48.4824 249.289 47.9831 246.852 46.9844C245.057 46.2734 243.779 45.2663 243.018 43.9629C242.628 43.3027 242.434 42.4987 242.434 41.5508C242.434 39.6549 242.908 37.8861 243.855 36.2441C244.177 35.8548 244.617 35.6602 245.176 35.6602C246.259 35.6602 246.885 35.9818 247.055 36.625C247.275 39.5534 248.172 41.6862 249.746 43.0234C251.337 44.3607 253.555 45.0293 256.398 45.0293C259.665 45.0293 261.857 43.9629 262.975 41.8301C263.364 41.0853 263.559 40.2135 263.559 39.2148C263.559 38.1992 263.288 37.2936 262.746 36.498C262.204 35.7025 261.485 34.9661 260.588 34.2891C259.217 33.2734 257.397 32.2917 255.129 31.3438C252.878 30.3958 251.117 29.5664 249.848 28.8555C248.595 28.1445 247.486 27.3151 246.521 26.3672C244.423 24.3021 243.373 21.7546 243.373 18.7246C243.373 15.627 244.702 13.1471 247.359 11.2852C249.915 9.49089 253.216 8.59375 257.262 8.59375C262.391 8.59375 265.742 9.65169 267.316 11.7676C267.892 12.5293 268.18 13.528 268.18 14.7637C268.18 15.9993 268.061 17.0742 267.824 17.9883C267.604 18.9023 267.384 19.4948 267.164 19.7656C266.792 20.2227 266.148 20.4512 265.234 20.4512C264.337 20.4512 263.889 20.2311 263.889 19.791ZM291.387 48.2031C290.997 48.0677 290.16 48 288.873 48H278.285C277.405 48 276.702 47.8646 276.178 47.5938C275.653 47.306 275.391 46.7897 275.391 46.0449C275.391 45.5033 275.518 45.0716 275.771 44.75C276.449 44.9193 277.075 45.0039 277.65 45.0039C278.226 45.0039 278.683 44.9447 279.021 44.8262C279.36 44.6908 279.656 44.4622 279.91 44.1406C280.418 43.4635 280.672 42.3379 280.672 40.7637V14.7891C280.621 13.6042 280.232 12.8509 279.504 12.5293C279.284 12.4277 278.979 12.3346 278.59 12.25L277.371 11.9961C276.542 11.793 276.034 11.5475 275.848 11.2598C275.661 10.9551 275.568 10.6504 275.568 10.3457C275.568 9.7194 275.695 9.22852 275.949 8.87305C276.339 9.00846 277.176 9.07617 278.463 9.07617H288.797C289.677 9.07617 290.38 9.22005 290.904 9.50781C291.446 9.77865 291.717 10.2865 291.717 11.0312C291.717 11.5898 291.581 12.0215 291.311 12.3262C290.667 12.1569 289.965 12.0723 289.203 12.0723C287.561 12.0723 286.715 13.4095 286.664 16.084V27.3066H306.977V14.7891C306.926 13.6042 306.536 12.8509 305.809 12.5293C305.589 12.4277 305.284 12.3346 304.895 12.25L303.676 11.9961C302.846 11.793 302.339 11.5475 302.152 11.2598C301.966 10.9551 301.873 10.6504 301.873 10.3457C301.873 9.66862 302 9.17773 302.254 8.87305C302.643 9.00846 303.481 9.07617 304.768 9.07617H315.102C315.982 9.07617 316.684 9.22005 317.209 9.50781C317.751 9.77865 318.021 10.2865 318.021 11.0312C318.021 11.5898 317.886 12.0215 317.615 12.3262C316.972 12.1569 316.27 12.0723 315.508 12.0723C313.866 12.0723 313.02 13.4095 312.969 16.084V42.0078C312.969 42.9557 313.113 43.582 313.4 43.8867C313.824 44.3438 314.348 44.64 314.975 44.7754C315.601 44.8939 316.117 45.0039 316.523 45.1055C316.93 45.1901 317.268 45.3001 317.539 45.4355C318.081 45.7064 318.352 46.1634 318.352 46.8066C318.352 47.3991 318.216 47.8646 317.945 48.2031C317.556 48.0677 316.718 48 315.432 48H304.844C303.964 48 303.261 47.8646 302.736 47.5938C302.212 47.306 301.949 46.7897 301.949 46.0449C301.949 45.5033 302.076 45.0716 302.33 44.75C302.973 44.9193 303.574 45.0039 304.133 45.0039C304.691 45.0039 305.123 44.9447 305.428 44.8262C305.732 44.7077 305.995 44.4961 306.215 44.1914C306.689 43.5651 306.943 42.5072 306.977 41.0176V30.8105H286.664V42.0078C286.664 43.3451 287.036 44.1914 287.781 44.5469C288.018 44.6484 288.34 44.7415 288.746 44.8262C289.152 44.9108 289.55 45.0039 289.939 45.1055C290.346 45.1901 290.684 45.3001 290.955 45.4355C291.514 45.7233 291.793 46.1803 291.793 46.8066C291.793 47.3991 291.658 47.8646 291.387 48.2031ZM339.451 48.2031C339.062 48.0677 338.224 48 336.938 48H326.35C325.469 48 324.767 47.8646 324.242 47.5938C323.717 47.306 323.455 46.7897 323.455 46.0449C323.455 45.5033 323.582 45.0716 323.836 44.75C324.513 44.9193 325.131 45.0039 325.689 45.0039C326.265 45.0039 326.714 44.9447 327.035 44.8262C327.374 44.7077 327.661 44.4961 327.898 44.1914C328.423 43.5482 328.702 42.4902 328.736 41.0176V15.0684C328.736 13.7311 328.364 12.8932 327.619 12.5547C327.382 12.4362 327.061 12.3346 326.654 12.25C326.248 12.1654 325.842 12.0807 325.436 11.9961C325.046 11.8945 324.716 11.776 324.445 11.6406C323.904 11.3698 323.633 10.9128 323.633 10.2695C323.633 9.64323 323.76 9.17773 324.014 8.87305C324.403 9.00846 325.241 9.07617 326.527 9.07617H336.861C337.742 9.07617 338.444 9.22005 338.969 9.50781C339.51 9.77865 339.781 10.2865 339.781 11.0312C339.781 11.5898 339.646 12.0215 339.375 12.3262C338.732 12.1569 338.029 12.0723 337.268 12.0723C335.626 12.0723 334.779 13.4095 334.729 16.084V42.0078C334.729 43.3451 335.101 44.1914 335.846 44.5469C336.083 44.6484 336.404 44.7415 336.811 44.8262C337.217 44.9108 337.615 45.0039 338.004 45.1055C338.41 45.1901 338.749 45.3001 339.02 45.4355C339.578 45.7233 339.857 46.1803 339.857 46.8066C339.857 47.3991 339.722 47.8646 339.451 48.2031ZM348.084 48C345.816 48 344.682 47.3483 344.682 46.0449C344.682 45.4525 344.817 45.0378 345.088 44.8008C345.579 44.9362 346.087 45.0039 346.611 45.0039C347.153 45.0039 347.618 44.9362 348.008 44.8008C348.414 44.6654 348.77 44.4707 349.074 44.2168C349.684 43.6921 349.988 42.9557 349.988 42.0078V14.3574C349.954 13.6803 349.811 13.1725 349.557 12.834C349.303 12.4954 348.922 12.2585 348.414 12.123C347.906 11.9707 347.483 11.8607 347.145 11.793C346.823 11.7253 346.527 11.6406 346.256 11.5391C345.663 11.2852 345.367 10.972 345.367 10.5996C345.367 9.82096 345.494 9.27083 345.748 8.94922C346.104 9.03385 346.645 9.07617 347.373 9.07617H352.324C353.814 9.07617 355.151 9.82943 356.336 11.3359L377.689 38.4023V14.7129C377.673 14.0358 377.529 13.4688 377.258 13.0117C377.004 12.5547 376.564 12.25 375.938 12.0977C375.328 11.9453 374.786 11.8353 374.312 11.7676C373.839 11.6829 373.415 11.5729 373.043 11.4375C372.247 11.1667 371.85 10.7266 371.85 10.1172C371.85 9.60938 371.985 9.22005 372.256 8.94922C372.611 9.03385 373.153 9.07617 373.881 9.07617H384.113C386.382 9.07617 387.516 9.55859 387.516 10.5234C387.516 11.3359 387.389 11.8861 387.135 12.1738C386.712 12.0553 386.221 11.9961 385.662 11.9961C385.12 11.9961 384.646 12.013 384.24 12.0469C383.834 12.0638 383.47 12.1654 383.148 12.3516C382.438 12.7409 382.065 13.5365 382.031 14.7383V47.2891C382.031 47.7799 381.896 48.0762 381.625 48.1777C381.354 48.2962 380.863 48.3555 380.152 48.3555C378.951 48.3555 377.664 47.4668 376.293 45.6895L354.33 18.0645V42.3633C354.415 43.819 355.1 44.7161 356.387 45.0547C356.878 45.1562 357.36 45.2409 357.834 45.3086C358.325 45.3763 358.757 45.4609 359.129 45.5625C359.992 45.7826 360.424 46.1719 360.424 46.7305C360.424 47.3398 360.297 47.8053 360.043 48.127C359.688 48.0423 359.146 48 358.418 48H348.084ZM428.039 29.5156C428.242 30.0911 428.344 30.5905 428.344 31.0137C428.344 31.4368 428.276 31.7331 428.141 31.9023C428.022 32.0716 427.861 32.1986 427.658 32.2832C427.455 32.3678 427.218 32.4355 426.947 32.4863C426.676 32.5371 426.346 32.6725 425.957 32.8926C425.212 33.3158 424.84 34.4329 424.84 36.2441V42.1602C424.62 42.6172 424.154 43.2096 423.443 43.9375C422.732 44.6654 421.768 45.3678 420.549 46.0449C417.57 47.7038 414.294 48.5332 410.723 48.5332C407.168 48.5332 404.223 48.0677 401.887 47.1367C399.551 46.2057 397.596 44.9108 396.021 43.252C392.856 39.9173 391.273 35.474 391.273 29.9219C391.273 26.5026 391.815 23.4642 392.898 20.8066C393.999 18.1491 395.48 15.9232 397.342 14.1289C401.15 10.4388 405.924 8.59375 411.662 8.59375C416.249 8.59375 419.677 9.42318 421.945 11.082C423.74 12.4023 424.637 14.0697 424.637 16.084C424.637 17.3366 424.273 18.3438 423.545 19.1055C422.851 19.8333 421.945 20.1973 420.828 20.1973C419.846 20.1973 419.152 20.0703 418.746 19.8164C418.831 19.2747 418.873 18.6061 418.873 17.8105C418.873 17.015 418.695 16.2448 418.34 15.5C418.001 14.7383 417.493 14.1374 416.816 13.6973C415.648 12.9186 413.888 12.5293 411.535 12.5293C409.182 12.5293 407.168 12.834 405.492 13.4434C403.833 14.0527 402.428 14.9922 401.277 16.2617C398.891 18.8685 397.697 22.7109 397.697 27.7891C397.697 38.944 402.454 44.5215 411.967 44.5215C414.218 44.5215 416.156 44.1745 417.781 43.4805C418.306 43.2604 418.712 43.015 419 42.7441L418.975 35.4824C418.975 34.2637 418.179 33.4258 416.588 32.9688C416.199 32.8672 415.801 32.7741 415.395 32.6895C414.988 32.6048 414.582 32.5202 414.176 32.4355C413.786 32.334 413.456 32.207 413.186 32.0547C412.644 31.7839 412.373 31.3353 412.373 30.709C412.373 30.0658 412.5 29.6003 412.754 29.3125C413.143 29.4479 413.981 29.5156 415.268 29.5156H428.039Z" fill="black"/>
<defs>
<clipPath id="clip0">
<rect x="43" y="3" width="35" height="35" fill="white"/>
</clipPath>
</defs>
</svg>
