<svg width="122" height="121" viewBox="0 0 122 121" fill="none" xmlns="http://www.w3.org/2000/svg">
<line y1="-1.5" x2="160" y2="-1.5" transform="matrix(0.707107 -0.707107 0.707439 0.706774 3.00012 116.137)" stroke="white" stroke-width="3"/>
<line y1="-1.5" x2="160" y2="-1.5" transform="matrix(0.707107 0.707107 -0.707439 0.706774 3.00012 3)" stroke="white" stroke-width="3"/>
<path fill-rule="evenodd" clip-rule="evenodd" d="M53.6101 85.9765C51.3238 86.5911 49.0523 87.2596 46.7976 87.9815C46.5935 88.0445 46.4114 88.1638 46.2721 88.3256C46.1328 88.4875 46.0419 88.6853 46.0101 88.8965C44.6776 98.639 47.7526 105.749 51.4201 110.431C53.2601 112.781 55.2526 114.521 56.9126 115.664C57.7451 116.234 58.4776 116.649 59.0551 116.914C59.3451 117.046 59.5801 117.136 59.7601 117.189C59.8394 117.215 59.9204 117.235 60.0026 117.249C60.0201 117.246 60.0976 117.236 60.2451 117.191C60.4251 117.136 60.6601 117.046 60.9501 116.914C61.5251 116.649 62.2626 116.234 63.0926 115.664C65.1741 114.204 67.0254 112.44 68.5851 110.431C72.2526 105.749 75.3276 98.639 73.9951 88.8965C73.9632 88.6853 73.8723 88.4875 73.733 88.3256C73.5937 88.1638 73.4116 88.0445 73.2076 87.9815C71.6426 87.4815 69.0026 86.6665 66.3951 85.9765C63.7301 85.274 61.2776 84.749 60.0026 84.749C58.7276 84.749 56.2776 85.274 53.6101 85.9765ZM52.9701 83.5615C55.5776 82.8715 58.3451 82.249 60.0026 82.249C61.6576 82.249 64.4276 82.8715 67.0351 83.5615C69.3608 84.1859 71.6714 84.8653 73.9651 85.599C75.2851 86.019 76.2801 87.1565 76.4726 88.559C77.9051 99.0515 74.5826 106.826 70.5551 111.971C68.8388 114.18 66.8011 116.118 64.5101 117.721C63.7134 118.28 62.8713 118.77 61.9926 119.186C61.3176 119.496 60.5976 119.749 60.0026 119.749C59.4076 119.749 58.6876 119.496 58.0126 119.186C57.1336 118.77 56.2915 118.28 55.4951 117.721C53.2049 116.118 51.1681 114.179 49.4526 111.971C45.4201 106.826 42.1001 99.0515 43.5326 88.559C43.6283 87.8792 43.9147 87.2404 44.3584 86.7165C44.8022 86.1927 45.3852 85.8052 46.0401 85.599C48.3337 84.8653 50.6443 84.1859 52.9701 83.5615V83.5615Z" fill="white"/>
<path d="M60.0001 86.625C62.2726 86.625 67.9701 88.3375 70.6351 89.18C71.0646 89.3117 71.4473 89.5637 71.738 89.9062C72.0286 90.2487 72.2151 90.6674 72.2751 91.1125C74.3101 107.173 61.9501 114.743 60.0001 114.743V86.625Z" fill="white"/>
<path d="M109.451 39.2869C106.783 38.9444 104.5 41.0231 104.5 43.625V44.875C104.5 46.8563 105.75 48.625 107.625 49.25V56.125C106.934 56.125 106.375 56.6844 106.375 57.375V64.25C106.375 65.065 106.898 65.7519 107.625 66.01V67.6875C107.625 71.3119 104.687 74.25 101.063 74.25C97.4382 74.25 94.5001 71.3119 94.5001 67.6875V59.875L87.6251 71.75L92.4651 70.54C93.6614 74.1462 97.0551 76.75 101.063 76.75C106.068 76.75 110.125 72.6925 110.125 67.6875V66.01C110.852 65.7519 111.375 65.065 111.375 64.25V57.375C111.375 56.6844 110.816 56.125 110.125 56.125V49.25C111.931 48.7125 113.25 46.8563 113.25 44.875V43.7775C113.25 41.5538 111.656 39.57 109.451 39.2869ZM111.375 44.875C111.375 46.2538 110.254 47.375 108.875 47.375C107.496 47.375 106.375 46.2538 106.375 44.875V43.625C106.375 42.2463 107.496 41.125 108.875 41.125C110.254 41.125 111.375 42.2463 111.375 43.625V44.875Z" fill="white"/>
<g clip-path="url(#clip0)">
<path d="M37.0296 57.1227C37.1572 56.8487 38.0291 55.693 38.8186 54.495C38.8193 54.4941 38.8199 54.4933 38.8203 54.4926C38.9985 54.2222 39.1721 53.95 39.3325 53.685C39.337 53.6776 39.3416 53.67 39.3461 53.6626C39.3721 53.6194 41.2186 50.659 38.5885 51.8579C38.5885 51.8581 38.5883 51.8584 38.5881 51.8586C38.0939 52.112 37.4655 52.4899 36.6752 53.0195C34.9514 54.1751 31.4448 55.8666 31.4448 55.8666C31.4448 55.8666 30.8345 56.1963 30.4321 55.9451C28.3984 54.6765 25.4354 52.4228 21.5291 51.168C21.4639 51.147 21.3814 51.0974 21.4936 50.9935L23.1665 49.8236C23.1665 49.8236 23.2976 49.7103 23.1293 49.6556C22.3014 49.3858 18.8532 48.2295 15.8694 49.2926C15.2616 49.5091 14.7627 49.6869 14.3526 49.8331C14.1762 49.896 13.997 49.9699 13.6397 50.0141C5.50288 50.2924 0.00012207 56.2653 0.00012207 58.628C0.00012207 60.2136 0.855072 61.2776 3.97888 62.7568C4.04158 62.7468 4.51844 63.0891 5.566 62.7744C5.84679 62.69 7.84094 61.9389 7.92021 61.9051C7.99968 61.8688 8.05127 61.8508 8.08419 61.8562C8.12655 61.8629 8.15769 61.9571 8.15748 61.9761C8.15088 62.541 7.0922 62.9984 6.49109 63.5003C6.38792 63.5485 6.36024 63.7881 6.5409 63.8656C6.54111 63.8656 8.6637 65.0037 12.0253 65.3576C12.2971 65.3862 15.8356 67.6535 19.4037 67.0452C21.2909 66.7234 22.189 66.6134 22.5988 66.5003C22.9566 66.4018 22.7858 66.2883 22.7858 66.2883L20.9971 64.8632C20.876 64.7289 20.974 64.6257 21.0754 64.597C25.0473 63.4668 28.1878 61.6852 30.0581 60.1589C30.31 59.9533 30.9645 60.4421 31.4319 60.6782C32.9837 61.4622 39.4254 64.1176 39.9563 63.5555C40.002 63.5081 40.0053 63.4375 39.9587 63.3406C39.0523 61.4366 35.7761 59.8126 37.0296 57.1227ZM6.5884 56.9393C6.01539 56.9393 5.5509 56.4663 5.5509 55.8828C5.5509 55.2993 6.01539 54.8263 6.5884 54.8263C7.1614 54.8263 7.626 55.2993 7.626 55.8828C7.626 56.4663 7.1614 56.9393 6.5884 56.9393ZM11.2315 62.9507C11.1676 63.0081 11.1094 63.0947 11.1432 62.9701C11.1432 62.9701 12.7606 60.5365 12.9703 57.3909C13.1274 55.0335 11.5567 52.1463 11.5567 52.1463C11.5567 52.1463 11.5598 52.062 11.6149 52.1286C12.1741 52.8049 17.6798 57.1549 11.2315 62.9507Z" fill="white"/>
</g>
<g clip-path="url(#clip1)">
<path d="M64.5059 0.452379L61.6495 3.08228C60.9991 3.67613 60.0094 3.67613 59.359 3.08228L56.4746 0.480658C55.5979 -0.31114 54.2123 -7.66336e-05 53.7598 1.07451L51.4127 6.7302H69.5675L67.2204 1.04623C66.7682 -0.0280723 65.3823 -0.339136 64.5059 0.452379Z" fill="white"/>
<path d="M46.0399 11.8954C45.2198 12.2913 45.5309 13.5073 46.4075 13.5073H60.4902H74.5449C75.4495 13.5073 75.7323 12.2913 74.9405 11.8954L71.4905 10.1139H49.4898L46.0399 11.8954Z" fill="white"/>
<path d="M43.1554 25.4993L44.6542 33.6438C44.7956 34.4636 45.5025 35.0011 46.3226 35.0011H60.4901H74.6862C75.506 35.0011 76.213 34.4356 76.3544 33.6438L77.8531 25.4993C77.9945 24.7075 77.5703 23.9157 76.8071 23.6049C73.1872 22.191 69.3981 21.4274 66.4003 20.9747C65.6371 20.8619 64.9016 21.286 64.6188 21.9644L61.7627 28.4402C61.2536 29.5714 59.6418 29.5714 59.1608 28.4119L56.3895 21.9927C56.0784 21.2858 55.3432 20.8616 54.5796 20.9744C51.5821 21.3986 47.7928 22.1907 44.2014 23.6046C43.4382 23.8877 42.9857 24.6795 43.1554 25.4993Z" fill="white"/>
</g>
<defs>
<clipPath id="clip0">
<rect x="0.00012207" y="38" width="40" height="40" fill="white"/>
</clipPath>
<clipPath id="clip1">
<rect x="43.0001" width="35" height="35" fill="white"/>
</clipPath>
</defs>
</svg>
