<svg width="121" height="121" viewBox="0 0 121 121" fill="none" xmlns="http://www.w3.org/2000/svg">
<line x1="1.55161" y1="118.689" x2="118.62" y2="1.62004" stroke="black" stroke-width="4"/>
<line x1="1.41421" y1="1.58579" x2="118.414" y2="118.586" stroke="black" stroke-width="4"/>
<path d="M114.7 43.6C114.7 47.058 112.344 50.079 109 50.934V64.5C109 67.0196 107.999 69.4359 106.218 71.2175C104.436 72.9991 102.02 74 99.5 74C96.9804 74 94.5641 72.9991 92.7825 71.2175C91.0009 69.4359 90 67.0196 90 64.5V55L99.5 64.5H93.8C93.8 66.0117 94.4005 67.4616 95.4695 68.5305C96.5384 69.5995 97.9883 70.2 99.5 70.2C101.012 70.2 102.462 69.5995 103.531 68.5305C104.599 67.4616 105.2 66.0117 105.2 64.5V50.934C101.837 50.06 99.5 47.02 99.5 43.543C99.5 39.344 102.92 36 107.1 36C111.318 36 114.7 39.401 114.7 43.6ZM107.1 47.4C108.108 47.4 109.074 46.9996 109.787 46.287C110.5 45.5744 110.9 44.6078 110.9 43.6C110.9 42.5922 110.5 41.6256 109.787 40.913C109.074 40.2004 108.108 39.8 107.1 39.8C106.092 39.8 105.126 40.2004 104.413 40.913C103.7 41.6256 103.3 42.5922 103.3 43.6C103.3 44.6078 103.7 45.5744 104.413 46.287C105.126 46.9996 106.092 47.4 107.1 47.4Z" fill="black"/>
<path d="M59.5455 99H71.6364C70.7209 106.099 65.9709 112.438 59.5455 114.407V99H47.4545V89.1545L59.5455 83.7827V99ZM59.5455 80L44 86.9091V97.2727C44 106.859 50.6327 115.806 59.5455 118C68.4582 115.806 75.0909 106.859 75.0909 97.2727V86.9091L59.5455 80Z" fill="black"/>
<path d="M77.2 22.9C77.2 27.4352 75.3984 31.7847 72.1915 34.9915C68.9847 38.1984 64.6352 40 60.1 40C55.5648 40 51.2153 38.1984 48.0085 34.9915C44.8016 31.7847 43 27.4352 43 22.9L43.057 6.617C48.092 3.672 53.944 2 60.195 2C66.37 2 72.184 3.653 77.2 6.522V22.9ZM62 36.067C68.441 35.136 73.4 29.55 73.4 22.9V8.821C69.41 6.883 64.926 5.8 60.195 5.8C55.35 5.8 50.752 6.94 46.686 8.954L46.8 22.9C46.8 29.55 51.797 35.136 58.2 36.067V32.4H62V36.067ZM58.2 28.6H52.5L48.7 22.9L54.4 24.8H56.3L58.2 22.9H62L63.9 24.8H65.8L71.5 22.9L67.7 28.6H62L60.1 26.7L58.2 28.6ZM48.7 15.357C49.916 14.16 51.55 13.495 53.45 13.495C55.255 13.495 56.946 14.16 58.2 15.357C56.946 16.535 55.255 17.2 53.45 17.2C51.55 17.2 49.916 16.535 48.7 15.357ZM62 15.357C63.216 14.16 64.85 13.495 66.75 13.495C68.555 13.495 70.246 14.16 71.5 15.357C70.246 16.535 68.555 17.2 66.75 17.2C64.85 17.2 63.216 16.535 62 15.357Z" fill="black"/>
<path d="M22 75.5L23.596 69.2C16.75 68.759 10.639 65.84 8.875 62.018C8.686 63.026 8.413 63.95 7.993 64.643C6.607 67.1 3.793 67.1 1 67.1C3.31 67.1 4.15 63.803 4.15 59.75C4.15 55.697 3.31 52.4 1 52.4C3.793 52.4 6.607 52.4 7.993 54.857C8.413 55.55 8.686 56.474 8.875 57.482C10.24 54.5 14.272 52.085 19.186 50.972L15.7 44C19.9 44 24.1 44 26.893 45.407C29.266 46.583 30.631 48.767 31.849 51.098C37.981 52.568 43 55.886 43 59.75C43 63.698 37.75 67.1 31.45 68.486C29.707 70.796 28.006 72.938 26.557 74.093C24.793 75.5 23.407 75.5 22 75.5ZM32.5 56.6C31.943 56.6 31.4089 56.8212 31.0151 57.2151C30.6212 57.6089 30.4 58.143 30.4 58.7C30.4 59.257 30.6212 59.7911 31.0151 60.1849C31.4089 60.5787 31.943 60.8 32.5 60.8C33.057 60.8 33.5911 60.5787 33.9849 60.1849C34.3788 59.7911 34.6 59.257 34.6 58.7C34.6 58.143 34.3788 57.6089 33.9849 57.2151C33.5911 56.8212 33.057 56.6 32.5 56.6Z" fill="black"/>
</svg>
