<svg width="508" height="124" viewBox="0 0 508 124" fill="none" xmlns="http://www.w3.org/2000/svg">
<line x1="1.55161" y1="121.689" x2="118.62" y2="4.62004" stroke="black" stroke-width="4"/>
<line x1="1.41421" y1="4.58579" x2="118.414" y2="121.586" stroke="black" stroke-width="4"/>
<path d="M114.7 46.6C114.7 50.058 112.344 53.079 109 53.934V67.5C109 70.0196 107.999 72.4359 106.218 74.2175C104.436 75.9991 102.02 77 99.5 77C96.9804 77 94.5641 75.9991 92.7825 74.2175C91.0009 72.4359 90 70.0196 90 67.5V58L99.5 67.5H93.8C93.8 69.0117 94.4005 70.4616 95.4695 71.5305C96.5384 72.5995 97.9883 73.2 99.5 73.2C101.012 73.2 102.462 72.5995 103.531 71.5305C104.599 70.4616 105.2 69.0117 105.2 67.5V53.934C101.837 53.06 99.5 50.02 99.5 46.543C99.5 42.344 102.92 39 107.1 39C111.318 39 114.7 42.401 114.7 46.6ZM107.1 50.4C108.108 50.4 109.074 49.9996 109.787 49.287C110.5 48.5744 110.9 47.6078 110.9 46.6C110.9 45.5922 110.5 44.6256 109.787 43.913C109.074 43.2004 108.108 42.8 107.1 42.8C106.092 42.8 105.126 43.2004 104.413 43.913C103.7 44.6256 103.3 45.5922 103.3 46.6C103.3 47.6078 103.7 48.5744 104.413 49.287C105.126 49.9996 106.092 50.4 107.1 50.4Z" fill="black"/>
<path d="M59.5455 102H71.6364C70.7209 109.099 65.9709 115.438 59.5455 117.407V102H47.4545V92.1545L59.5455 86.7827V102ZM59.5455 83L44 89.9091V100.273C44 109.859 50.6327 118.806 59.5455 121C68.4582 118.806 75.0909 109.859 75.0909 100.273V89.9091L59.5455 83Z" fill="black"/>
<path d="M77.2 25.9C77.2 30.4352 75.3984 34.7847 72.1915 37.9915C68.9847 41.1984 64.6352 43 60.1 43C55.5648 43 51.2153 41.1984 48.0085 37.9915C44.8016 34.7847 43 30.4352 43 25.9L43.057 9.617C48.092 6.672 53.944 5 60.195 5C66.37 5 72.184 6.653 77.2 9.522V25.9ZM62 39.067C68.441 38.136 73.4 32.55 73.4 25.9V11.821C69.41 9.883 64.926 8.8 60.195 8.8C55.35 8.8 50.752 9.94 46.686 11.954L46.8 25.9C46.8 32.55 51.797 38.136 58.2 39.067V35.4H62V39.067ZM58.2 31.6H52.5L48.7 25.9L54.4 27.8H56.3L58.2 25.9H62L63.9 27.8H65.8L71.5 25.9L67.7 31.6H62L60.1 29.7L58.2 31.6ZM48.7 18.357C49.916 17.16 51.55 16.495 53.45 16.495C55.255 16.495 56.946 17.16 58.2 18.357C56.946 19.535 55.255 20.2 53.45 20.2C51.55 20.2 49.916 19.535 48.7 18.357ZM62 18.357C63.216 17.16 64.85 16.495 66.75 16.495C68.555 16.495 70.246 17.16 71.5 18.357C70.246 19.535 68.555 20.2 66.75 20.2C64.85 20.2 63.216 19.535 62 18.357Z" fill="black"/>
<path d="M22 78.5L23.596 72.2C16.75 71.759 10.639 68.84 8.875 65.018C8.686 66.026 8.413 66.95 7.993 67.643C6.607 70.1 3.793 70.1 1 70.1C3.31 70.1 4.15 66.803 4.15 62.75C4.15 58.697 3.31 55.4 1 55.4C3.793 55.4 6.607 55.4 7.993 57.857C8.413 58.55 8.686 59.474 8.875 60.482C10.24 57.5 14.272 55.085 19.186 53.972L15.7 47C19.9 47 24.1 47 26.893 48.407C29.266 49.583 30.631 51.767 31.849 54.098C37.981 55.568 43 58.886 43 62.75C43 66.698 37.75 70.1 31.45 71.486C29.707 73.796 28.006 75.938 26.557 77.093C24.793 78.5 23.407 78.5 22 78.5ZM32.5 59.6C31.943 59.6 31.4089 59.8212 31.0151 60.2151C30.6212 60.6089 30.4 61.143 30.4 61.7C30.4 62.257 30.6212 62.7911 31.0151 63.1849C31.4089 63.5787 31.943 63.8 32.5 63.8C33.057 63.8 33.5911 63.5787 33.9849 63.1849C34.3788 62.7911 34.6 62.257 34.6 61.7C34.6 61.143 34.3788 60.6089 33.9849 60.2151C33.5911 59.8212 33.057 59.6 32.5 59.6Z" fill="black"/>
<path d="M153.484 117.203C153.095 117.068 152.266 117 150.996 117H140.637C139.757 117 139.054 116.865 138.529 116.594C138.005 116.306 137.742 115.79 137.742 115.045C137.742 114.503 137.869 114.072 138.123 113.75C138.766 113.919 139.384 114.004 139.977 114.004C140.569 114.004 141.035 113.945 141.373 113.826C141.712 113.691 142.008 113.462 142.262 113.141C142.77 112.464 143.023 111.338 143.023 109.764V83.7891C142.973 82.6042 142.583 81.8509 141.855 81.5293C141.635 81.4277 141.331 81.3346 140.941 81.25C140.569 81.1654 140.197 81.0807 139.824 80.9961C139.469 80.8945 139.164 80.776 138.91 80.6406C138.402 80.3698 138.148 80.0143 138.148 79.5742C138.148 78.7786 138.284 78.2116 138.555 77.873C138.944 78.0085 139.782 78.0762 141.068 78.0762H144.369L153.281 77.8223L154.373 77.7969C159.587 77.7969 163.488 78.7279 166.078 80.5898C168.668 82.4349 169.963 85.0417 169.963 88.4102C169.963 90.9323 169.142 93.2513 167.5 95.3672C165.672 97.7201 163.15 99.3112 159.934 100.141C160.814 100.75 161.812 101.867 162.93 103.492L165.621 107.428C168.143 111.101 170.234 112.938 171.893 112.938C172.519 112.938 172.993 112.878 173.314 112.76L173.949 112.506C174.085 112.455 174.237 112.43 174.406 112.43C174.576 112.43 174.753 112.565 174.939 112.836C175.126 113.09 175.219 113.386 175.219 113.725C175.219 114.063 175.075 114.469 174.787 114.943C174.499 115.4 174.093 115.815 173.568 116.188C172.383 117.051 171.089 117.482 169.684 117.482C168.279 117.482 167.119 117.245 166.205 116.771C165.308 116.298 164.479 115.68 163.717 114.918C162.972 114.139 162.286 113.259 161.66 112.277C161.051 111.296 160.475 110.288 159.934 109.256L158.436 106.234C157.369 104.034 156.514 102.62 155.871 101.994C155.245 101.351 154.669 101.029 154.145 101.029H151.58C151.157 101.029 150.945 100.725 150.945 100.115C150.945 99.2689 151.267 98.6087 151.91 98.1348C152.13 97.9824 152.79 97.8978 153.891 97.8809C154.991 97.847 156.227 97.61 157.598 97.1699C158.986 96.7298 160.128 96.1289 161.025 95.3672C162.769 93.8607 163.641 91.7448 163.641 89.0195C163.641 86.7344 162.879 84.8639 161.355 83.4082C159.629 81.7663 157.225 80.9284 154.145 80.8945C152.113 80.8945 150.759 81.1992 150.082 81.8086C149.405 82.3841 149.049 83.4759 149.016 85.084V111.008C149.016 112.345 149.388 113.191 150.133 113.547C150.37 113.648 150.683 113.742 151.072 113.826C151.462 113.911 151.834 114.004 152.189 114.105C152.562 114.19 152.875 114.3 153.129 114.436C153.637 114.706 153.891 115.07 153.891 115.527C153.891 116.306 153.755 116.865 153.484 117.203ZM205.967 105.701C206.424 105.312 206.906 105.117 207.414 105.117C208.193 105.117 208.641 105.227 208.76 105.447C209.42 106.768 209.75 108.951 209.75 111.998C209.75 114.114 209.513 115.646 209.039 116.594C208.887 116.865 208.726 117 208.557 117H180.525C178.511 117 177.504 116.399 177.504 115.197C177.504 114.554 177.639 114.063 177.91 113.725C178.486 113.894 179.044 113.979 179.586 113.979C180.128 113.979 180.593 113.936 180.982 113.852C181.372 113.767 181.736 113.589 182.074 113.318C182.887 112.692 183.293 111.634 183.293 110.145V84.4238C183.293 82.9512 182.701 82.0117 181.516 81.6055C181.177 81.487 180.822 81.3854 180.449 81.3008C180.094 81.1992 179.747 81.1061 179.408 81.0215C179.087 80.9199 178.799 80.8099 178.545 80.6914C177.969 80.3867 177.682 79.972 177.682 79.4473C177.682 78.7533 177.817 78.2539 178.088 77.9492C178.393 78.0339 178.697 78.0762 179.002 78.0762H204.977C206.534 78.0762 207.507 78.2201 207.896 78.5078C208.607 79.0156 208.963 80.1328 208.963 81.8594C208.963 83.5182 208.819 84.8724 208.531 85.9219C208.26 86.9714 208.066 87.5977 207.947 87.8008C207.778 88.1055 207.448 88.2578 206.957 88.2578C206.246 88.2578 205.755 88.1732 205.484 88.0039C205.23 87.8177 205.095 87.6823 205.078 87.5977C204.858 85.1771 204.477 83.6367 203.936 82.9766C203.394 82.2995 202.751 81.8424 202.006 81.6055C201.278 81.3516 200.322 81.2246 199.137 81.2246H193.475C191.68 81.2246 190.58 81.4023 190.174 81.7578C189.785 82.1133 189.539 82.528 189.438 83.002C189.336 83.459 189.285 84.0514 189.285 84.7793V95.5957L190.783 95.6211C194.524 95.6211 197.994 95.291 201.193 94.6309C201.43 94.7493 201.642 95.0879 201.828 95.6465C202.014 96.1882 202.107 96.7298 202.107 97.2715C202.107 98.1855 201.955 98.9811 201.65 99.6582C200.533 99.7598 199.247 99.8105 197.791 99.8105C196.335 99.8105 193.5 99.5736 189.285 99.0996V110.551C189.285 111.82 189.624 112.675 190.301 113.115C190.876 113.488 191.909 113.674 193.398 113.674L197.232 113.572C200.939 113.437 203.352 112.921 204.469 112.023C205.095 111.516 205.51 110.847 205.713 110.018C205.916 109.188 206.018 108.359 206.018 107.529C206.018 106.683 206.001 106.074 205.967 105.701ZM236.588 88.791C236.588 84.9147 235.208 82.4857 232.449 81.5039C231.501 81.1654 230.393 80.9961 229.123 80.9961C227.854 80.9961 226.762 81.14 225.848 81.4277C224.934 81.7155 224.172 82.1048 223.562 82.5957C222.327 83.5944 221.709 84.9147 221.709 86.5566C221.709 89.0449 223.537 91.1693 227.193 92.9297L230.367 94.4277C231.908 95.1387 233.389 95.8665 234.811 96.6113C236.249 97.3392 237.519 98.1771 238.619 99.125C241.04 101.19 242.25 103.746 242.25 106.793C242.25 110.06 240.828 112.692 237.984 114.689C235.327 116.551 231.992 117.482 227.98 117.482C224.798 117.482 221.988 116.983 219.551 115.984C217.757 115.273 216.479 114.266 215.717 112.963C215.327 112.303 215.133 111.499 215.133 110.551C215.133 108.655 215.607 106.886 216.555 105.244C216.876 104.855 217.316 104.66 217.875 104.66C218.958 104.66 219.585 104.982 219.754 105.625C219.974 108.553 220.871 110.686 222.445 112.023C224.036 113.361 226.254 114.029 229.098 114.029C232.365 114.029 234.557 112.963 235.674 110.83C236.063 110.085 236.258 109.214 236.258 108.215C236.258 107.199 235.987 106.294 235.445 105.498C234.904 104.702 234.184 103.966 233.287 103.289C231.916 102.273 230.096 101.292 227.828 100.344C225.577 99.3958 223.816 98.5664 222.547 97.8555C221.294 97.1445 220.186 96.3151 219.221 95.3672C217.122 93.3021 216.072 90.7546 216.072 87.7246C216.072 84.627 217.401 82.1471 220.059 80.2852C222.615 78.4909 225.915 77.5938 229.961 77.5938C235.09 77.5938 238.441 78.6517 240.016 80.7676C240.591 81.5293 240.879 82.528 240.879 83.7637C240.879 84.9993 240.76 86.0742 240.523 86.9883C240.303 87.9023 240.083 88.4948 239.863 88.7656C239.491 89.2227 238.848 89.4512 237.934 89.4512C237.036 89.4512 236.588 89.2311 236.588 88.791ZM264.111 117.203C263.722 117.068 262.884 117 261.598 117H251.01C250.13 117 249.427 116.865 248.902 116.594C248.378 116.306 248.115 115.79 248.115 115.045C248.115 114.503 248.242 114.072 248.496 113.75C249.173 113.919 249.791 114.004 250.35 114.004C250.925 114.004 251.374 113.945 251.695 113.826C252.034 113.708 252.322 113.496 252.559 113.191C253.083 112.548 253.363 111.49 253.396 110.018V84.0684C253.396 82.7311 253.024 81.8932 252.279 81.5547C252.042 81.4362 251.721 81.3346 251.314 81.25C250.908 81.1654 250.502 81.0807 250.096 80.9961C249.706 80.8945 249.376 80.776 249.105 80.6406C248.564 80.3698 248.293 79.9128 248.293 79.2695C248.293 78.6432 248.42 78.1777 248.674 77.873C249.063 78.0085 249.901 78.0762 251.188 78.0762H261.521C262.402 78.0762 263.104 78.2201 263.629 78.5078C264.171 78.7786 264.441 79.2865 264.441 80.0312C264.441 80.5898 264.306 81.0215 264.035 81.3262C263.392 81.1569 262.689 81.0723 261.928 81.0723C260.286 81.0723 259.439 82.4095 259.389 85.084V111.008C259.389 112.345 259.761 113.191 260.506 113.547C260.743 113.648 261.064 113.742 261.471 113.826C261.877 113.911 262.275 114.004 262.664 114.105C263.07 114.19 263.409 114.3 263.68 114.436C264.238 114.723 264.518 115.18 264.518 115.807C264.518 116.399 264.382 116.865 264.111 117.203ZM291.939 88.791C291.939 84.9147 290.56 82.4857 287.801 81.5039C286.853 81.1654 285.744 80.9961 284.475 80.9961C283.205 80.9961 282.113 81.14 281.199 81.4277C280.285 81.7155 279.523 82.1048 278.914 82.5957C277.678 83.5944 277.061 84.9147 277.061 86.5566C277.061 89.0449 278.889 91.1693 282.545 92.9297L285.719 94.4277C287.259 95.1387 288.74 95.8665 290.162 96.6113C291.601 97.3392 292.87 98.1771 293.971 99.125C296.391 101.19 297.602 103.746 297.602 106.793C297.602 110.06 296.18 112.692 293.336 114.689C290.678 116.551 287.344 117.482 283.332 117.482C280.15 117.482 277.34 116.983 274.902 115.984C273.108 115.273 271.83 114.266 271.068 112.963C270.679 112.303 270.484 111.499 270.484 110.551C270.484 108.655 270.958 106.886 271.906 105.244C272.228 104.855 272.668 104.66 273.227 104.66C274.31 104.66 274.936 104.982 275.105 105.625C275.326 108.553 276.223 110.686 277.797 112.023C279.388 113.361 281.605 114.029 284.449 114.029C287.716 114.029 289.908 112.963 291.025 110.83C291.415 110.085 291.609 109.214 291.609 108.215C291.609 107.199 291.339 106.294 290.797 105.498C290.255 104.702 289.536 103.966 288.639 103.289C287.268 102.273 285.448 101.292 283.18 100.344C280.928 99.3958 279.168 98.5664 277.898 97.8555C276.646 97.1445 275.537 96.3151 274.572 95.3672C272.473 93.3021 271.424 90.7546 271.424 87.7246C271.424 84.627 272.753 82.1471 275.41 80.2852C277.966 78.4909 281.267 77.5938 285.312 77.5938C290.441 77.5938 293.793 78.6517 295.367 80.7676C295.943 81.5293 296.23 82.528 296.23 83.7637C296.23 84.9993 296.112 86.0742 295.875 86.9883C295.655 87.9023 295.435 88.4948 295.215 88.7656C294.842 89.2227 294.199 89.4512 293.285 89.4512C292.388 89.4512 291.939 89.2311 291.939 88.791ZM330.381 117.203C329.992 117.068 329.154 117 327.867 117H313.344C312.464 117 311.753 116.865 311.211 116.594C310.686 116.306 310.424 115.79 310.424 115.045C310.424 114.52 310.559 114.089 310.83 113.75C311.473 113.919 312.083 114.004 312.658 114.004C313.234 114.004 313.775 113.945 314.283 113.826C314.791 113.708 315.273 113.496 315.73 113.191C316.814 112.497 317.389 111.439 317.457 110.018V81.7832H314.156C311.702 81.7832 310.094 81.9017 309.332 82.1387C308.587 82.3587 308.02 82.6465 307.631 83.002C307.258 83.3574 306.954 83.8398 306.717 84.4492C306.294 85.4987 305.964 87.3099 305.727 89.8828C305.354 89.9674 305.016 90.0098 304.711 90.0098C304.034 90.0098 303.602 89.832 303.416 89.4766C303.23 89.1211 303.103 88.7572 303.035 88.3848C302.967 87.9954 302.917 87.5723 302.883 87.1152C302.815 86.2012 302.781 85.2279 302.781 84.1953C302.781 81.3685 303.001 79.5742 303.441 78.8125C303.882 78 304.762 77.5938 306.082 77.5938C306.336 77.5938 306.708 77.6191 307.199 77.6699C307.69 77.7207 308.401 77.7799 309.332 77.8477C311.854 78 314.876 78.0762 318.396 78.0762H322.688C327.596 78.0762 330.88 78 332.539 77.8477C334.198 77.6784 335.23 77.5938 335.637 77.5938C336.043 77.5938 336.415 77.653 336.754 77.7715C337.092 77.89 337.363 78.0592 337.566 78.2793C337.888 78.6517 338.049 79.1172 338.049 79.6758C338.049 80.5221 338.023 81.1992 337.973 81.707C337.922 82.2148 337.863 82.8158 337.795 83.5098C337.744 84.2038 337.668 84.9232 337.566 85.668C337.329 87.4284 337.033 88.6387 336.678 89.2988C336.339 89.7728 335.924 90.0098 335.434 90.0098C334.96 90.0098 334.536 89.9674 334.164 89.8828L334.189 88.2832C334.189 86.7767 334.105 85.5918 333.936 84.7285C333.766 83.8483 333.411 83.1966 332.869 82.7734C332.327 82.3333 331.549 82.0625 330.533 81.9609C329.518 81.8424 328.163 81.7832 326.471 81.7832H323.424V111.008C323.424 112.227 324.397 113.073 326.344 113.547C326.818 113.648 327.266 113.742 327.689 113.826C328.13 113.911 328.553 114.004 328.959 114.105C329.365 114.19 329.704 114.3 329.975 114.436C330.516 114.706 330.787 115.163 330.787 115.807C330.787 116.399 330.652 116.865 330.381 117.203ZM366.461 114.004C367.172 114.122 367.705 114.182 368.061 114.182C368.416 114.182 368.763 114.148 369.102 114.08C369.457 113.995 369.77 113.868 370.041 113.699C370.65 113.327 370.955 112.743 370.955 111.947C370.955 111.287 370.752 110.551 370.346 109.738L367.959 103.822H351.887L349.043 111.033C348.772 111.693 348.637 112.176 348.637 112.48C348.637 112.768 348.679 112.988 348.764 113.141C348.865 113.276 349.009 113.395 349.195 113.496C349.398 113.598 349.644 113.682 349.932 113.75L350.973 114.029C352.09 114.215 352.809 114.385 353.131 114.537C353.791 114.859 354.121 115.333 354.121 115.959C354.121 116.416 353.994 116.805 353.74 117.127C353.419 117.042 353.122 117 352.852 117H342.518C340.266 117 339.141 116.382 339.141 115.146C339.141 114.571 339.268 114.105 339.521 113.75C340.148 113.919 340.673 114.004 341.096 114.004C341.536 114.004 341.9 113.936 342.188 113.801C342.492 113.665 342.78 113.437 343.051 113.115C343.508 112.557 344.041 111.439 344.65 109.764L357.193 79.3965C357.549 78.584 358.556 78.0254 360.215 77.7207C360.672 77.6361 361.154 77.5938 361.662 77.5938C362.695 77.5938 363.329 77.873 363.566 78.4316L366.105 84.7793C370.997 96.3236 373.824 103.061 374.586 104.99L376.871 110.982C377.328 112.286 377.709 113.09 378.014 113.395C378.318 113.699 378.648 113.911 379.004 114.029C379.359 114.148 379.723 114.249 380.096 114.334C380.485 114.402 380.824 114.495 381.111 114.613C381.755 114.901 382.076 115.341 382.076 115.934C382.076 116.391 381.949 116.78 381.695 117.102C381.374 117.017 381.086 116.975 380.832 116.975H368.721C367.857 116.975 367.18 116.873 366.689 116.67C366.215 116.45 365.979 116.12 365.979 115.68C365.979 114.918 366.139 114.359 366.461 114.004ZM366.486 100.217L359.834 83.7637L353.309 100.217H366.486ZM387.104 117C384.835 117 383.701 116.348 383.701 115.045C383.701 114.452 383.837 114.038 384.107 113.801C384.598 113.936 385.106 114.004 385.631 114.004C386.173 114.004 386.638 113.936 387.027 113.801C387.434 113.665 387.789 113.471 388.094 113.217C388.703 112.692 389.008 111.956 389.008 111.008V83.3574C388.974 82.6803 388.83 82.1725 388.576 81.834C388.322 81.4954 387.941 81.2585 387.434 81.123C386.926 80.9707 386.503 80.8607 386.164 80.793C385.842 80.7253 385.546 80.6406 385.275 80.5391C384.683 80.2852 384.387 79.972 384.387 79.5996C384.387 78.821 384.514 78.2708 384.768 77.9492C385.123 78.0339 385.665 78.0762 386.393 78.0762H391.344C392.833 78.0762 394.171 78.8294 395.355 80.3359L416.709 107.402V83.7129C416.692 83.0358 416.548 82.4688 416.277 82.0117C416.023 81.5547 415.583 81.25 414.957 81.0977C414.348 80.9453 413.806 80.8353 413.332 80.7676C412.858 80.6829 412.435 80.5729 412.062 80.4375C411.267 80.1667 410.869 79.7266 410.869 79.1172C410.869 78.6094 411.005 78.2201 411.275 77.9492C411.631 78.0339 412.173 78.0762 412.9 78.0762H423.133C425.401 78.0762 426.535 78.5586 426.535 79.5234C426.535 80.3359 426.408 80.8861 426.154 81.1738C425.731 81.0553 425.24 80.9961 424.682 80.9961C424.14 80.9961 423.666 81.013 423.26 81.0469C422.854 81.0638 422.49 81.1654 422.168 81.3516C421.457 81.7409 421.085 82.5365 421.051 83.7383V116.289C421.051 116.78 420.915 117.076 420.645 117.178C420.374 117.296 419.883 117.355 419.172 117.355C417.97 117.355 416.684 116.467 415.312 114.689L393.35 87.0645V111.363C393.434 112.819 394.12 113.716 395.406 114.055C395.897 114.156 396.38 114.241 396.854 114.309C397.344 114.376 397.776 114.461 398.148 114.562C399.012 114.783 399.443 115.172 399.443 115.73C399.443 116.34 399.316 116.805 399.062 117.127C398.707 117.042 398.165 117 397.438 117H387.104ZM456.141 89.0703C456.208 88.5964 456.242 87.9023 456.242 86.9883C456.242 86.0742 456.064 85.2448 455.709 84.5C455.354 83.7383 454.871 83.1458 454.262 82.7227C453.195 81.9948 451.587 81.6309 449.438 81.6309C447.305 81.6309 445.417 82.0202 443.775 82.7988C442.15 83.5605 440.788 84.6354 439.688 86.0234C437.47 88.8164 436.361 92.6165 436.361 97.4238C436.361 101.977 437.487 105.608 439.738 108.316C442.074 111.143 445.231 112.557 449.209 112.557C453.119 112.557 456.166 111.702 458.35 109.992C459.01 109.484 459.611 108.934 460.152 108.342C460.66 108.494 461.075 108.943 461.396 109.688C461.498 109.941 461.549 110.28 461.549 110.703C461.549 111.109 461.244 111.719 460.635 112.531C460.042 113.327 459.171 114.097 458.02 114.842C455.277 116.636 451.993 117.533 448.168 117.533C442.684 117.533 438.316 115.866 435.066 112.531C431.85 109.264 430.242 104.889 430.242 99.4043C430.242 96.0527 430.775 93.0312 431.842 90.3398C432.908 87.6484 434.364 85.3633 436.209 83.4844C438.054 81.5885 440.204 80.1328 442.658 79.1172C445.13 78.1016 447.525 77.5938 449.844 77.5938C452.18 77.5938 454.05 77.7884 455.455 78.1777C456.86 78.5671 458.028 79.1003 458.959 79.7773C460.821 81.1654 461.752 83.0104 461.752 85.3125C461.752 87.0729 461.1 88.3171 459.797 89.0449C459.357 89.2988 458.883 89.4258 458.375 89.4258C457.326 89.4258 456.581 89.3073 456.141 89.0703ZM494.963 105.701C495.42 105.312 495.902 105.117 496.41 105.117C497.189 105.117 497.637 105.227 497.756 105.447C498.416 106.768 498.746 108.951 498.746 111.998C498.746 114.114 498.509 115.646 498.035 116.594C497.883 116.865 497.722 117 497.553 117H469.521C467.507 117 466.5 116.399 466.5 115.197C466.5 114.554 466.635 114.063 466.906 113.725C467.482 113.894 468.04 113.979 468.582 113.979C469.124 113.979 469.589 113.936 469.979 113.852C470.368 113.767 470.732 113.589 471.07 113.318C471.883 112.692 472.289 111.634 472.289 110.145V84.4238C472.289 82.9512 471.697 82.0117 470.512 81.6055C470.173 81.487 469.818 81.3854 469.445 81.3008C469.09 81.1992 468.743 81.1061 468.404 81.0215C468.083 80.9199 467.795 80.8099 467.541 80.6914C466.965 80.3867 466.678 79.972 466.678 79.4473C466.678 78.7533 466.813 78.2539 467.084 77.9492C467.389 78.0339 467.693 78.0762 467.998 78.0762H493.973C495.53 78.0762 496.503 78.2201 496.893 78.5078C497.604 79.0156 497.959 80.1328 497.959 81.8594C497.959 83.5182 497.815 84.8724 497.527 85.9219C497.257 86.9714 497.062 87.5977 496.943 87.8008C496.774 88.1055 496.444 88.2578 495.953 88.2578C495.242 88.2578 494.751 88.1732 494.48 88.0039C494.227 87.8177 494.091 87.6823 494.074 87.5977C493.854 85.1771 493.473 83.6367 492.932 82.9766C492.39 82.2995 491.747 81.8424 491.002 81.6055C490.274 81.3516 489.318 81.2246 488.133 81.2246H482.471C480.676 81.2246 479.576 81.4023 479.17 81.7578C478.781 82.1133 478.535 82.528 478.434 83.002C478.332 83.459 478.281 84.0514 478.281 84.7793V95.5957L479.779 95.6211C483.52 95.6211 486.99 95.291 490.189 94.6309C490.426 94.7493 490.638 95.0879 490.824 95.6465C491.01 96.1882 491.104 96.7298 491.104 97.2715C491.104 98.1855 490.951 98.9811 490.646 99.6582C489.529 99.7598 488.243 99.8105 486.787 99.8105C485.331 99.8105 482.496 99.5736 478.281 99.0996V110.551C478.281 111.82 478.62 112.675 479.297 113.115C479.872 113.488 480.905 113.674 482.395 113.674L486.229 113.572C489.936 113.437 492.348 112.921 493.465 112.023C494.091 111.516 494.506 110.847 494.709 110.018C494.912 109.188 495.014 108.359 495.014 107.529C495.014 106.683 494.997 106.074 494.963 105.701Z" fill="black"/>
<path d="M156.201 50.2031C155.812 50.0677 154.974 50 153.688 50H140.637C139.757 50 139.054 49.8646 138.529 49.5938C138.005 49.306 137.742 48.7897 137.742 48.0449C137.742 47.5033 137.869 47.0716 138.123 46.75C138.766 46.9193 139.384 47.0039 139.977 47.0039C140.569 47.0039 141.035 46.9447 141.373 46.8262C141.712 46.6908 142.008 46.4622 142.262 46.1406C142.77 45.4635 143.023 44.3379 143.023 42.7637V17.2715C143.023 15.6973 142.092 14.7155 140.23 14.3262C139.062 14.0892 138.301 13.8184 137.945 13.5137C137.59 13.209 137.412 12.8789 137.412 12.5234C137.412 11.7448 137.548 11.2201 137.818 10.9492C138.123 11.0339 138.402 11.0762 138.656 11.0762H144.953L153.992 10.8223C161.914 10.8223 166.924 12.9805 169.023 17.2969C169.785 18.8542 170.166 20.4115 170.166 21.9688C170.166 23.526 170.056 24.8548 169.836 25.9551C169.616 27.0553 169.235 28.1302 168.693 29.1797C168.169 30.2122 167.466 31.194 166.586 32.125C165.706 33.0391 164.605 33.8431 163.285 34.5371C160.424 36.0267 156.768 36.7715 152.316 36.7715H151.352C150.878 36.7715 150.641 36.4668 150.641 35.8574C150.641 34.5202 151.005 33.7669 151.732 33.5977C158.097 33.7331 161.948 31.8372 163.285 27.9102C163.691 26.6745 163.895 25.3542 163.895 23.9492C163.895 22.5443 163.742 21.2578 163.438 20.0898C163.133 18.9049 162.583 17.8555 161.787 16.9414C160.027 14.944 157.115 13.9453 153.053 13.9453C151.411 13.9453 150.319 14.3008 149.777 15.0117C149.27 15.638 149.016 16.9076 149.016 18.8203V44.1855C149.1 45.5059 150.15 46.3099 152.164 46.5977C153.975 46.8516 155.101 47.0885 155.541 47.3086C155.981 47.5286 156.269 47.7487 156.404 47.9688C156.54 48.1719 156.607 48.4258 156.607 48.7305C156.607 49.3737 156.472 49.8646 156.201 50.2031ZM189.996 50.2031C189.607 50.0677 188.769 50 187.482 50H176.895C176.014 50 175.312 49.8646 174.787 49.5938C174.262 49.306 174 48.7897 174 48.0449C174 47.5033 174.127 47.0716 174.381 46.75C175.058 46.9193 175.684 47.0039 176.26 47.0039C176.835 47.0039 177.292 46.9447 177.631 46.8262C177.969 46.6908 178.266 46.4622 178.52 46.1406C179.027 45.4635 179.281 44.3379 179.281 42.7637V16.7891C179.23 15.6042 178.841 14.8509 178.113 14.5293C177.893 14.4277 177.589 14.3346 177.199 14.25L175.98 13.9961C175.151 13.793 174.643 13.5475 174.457 13.2598C174.271 12.9551 174.178 12.6504 174.178 12.3457C174.178 11.7194 174.305 11.2285 174.559 10.873C174.948 11.0085 175.786 11.0762 177.072 11.0762H187.406C188.286 11.0762 188.989 11.2201 189.514 11.5078C190.055 11.7786 190.326 12.2865 190.326 13.0312C190.326 13.5898 190.191 14.0215 189.92 14.3262C189.277 14.1569 188.574 14.0723 187.812 14.0723C186.171 14.0723 185.324 15.4095 185.273 18.084V29.3066H205.586V16.7891C205.535 15.6042 205.146 14.8509 204.418 14.5293C204.198 14.4277 203.893 14.3346 203.504 14.25L202.285 13.9961C201.456 13.793 200.948 13.5475 200.762 13.2598C200.576 12.9551 200.482 12.6504 200.482 12.3457C200.482 11.6686 200.609 11.1777 200.863 10.873C201.253 11.0085 202.09 11.0762 203.377 11.0762H213.711C214.591 11.0762 215.294 11.2201 215.818 11.5078C216.36 11.7786 216.631 12.2865 216.631 13.0312C216.631 13.5898 216.495 14.0215 216.225 14.3262C215.581 14.1569 214.879 14.0723 214.117 14.0723C212.475 14.0723 211.629 15.4095 211.578 18.084V44.0078C211.578 44.9557 211.722 45.582 212.01 45.8867C212.433 46.3438 212.958 46.64 213.584 46.7754C214.21 46.8939 214.727 47.0039 215.133 47.1055C215.539 47.1901 215.878 47.3001 216.148 47.4355C216.69 47.7064 216.961 48.1634 216.961 48.8066C216.961 49.3991 216.826 49.8646 216.555 50.2031C216.165 50.0677 215.327 50 214.041 50H203.453C202.573 50 201.87 49.8646 201.346 49.5938C200.821 49.306 200.559 48.7897 200.559 48.0449C200.559 47.5033 200.686 47.0716 200.939 46.75C201.583 46.9193 202.184 47.0039 202.742 47.0039C203.301 47.0039 203.732 46.9447 204.037 46.8262C204.342 46.7077 204.604 46.4961 204.824 46.1914C205.298 45.5651 205.552 44.5072 205.586 43.0176V32.8105H185.273V44.0078C185.273 45.3451 185.646 46.1914 186.391 46.5469C186.628 46.6484 186.949 46.7415 187.355 46.8262C187.762 46.9108 188.16 47.0039 188.549 47.1055C188.955 47.1901 189.294 47.3001 189.564 47.4355C190.123 47.7233 190.402 48.1803 190.402 48.8066C190.402 49.3991 190.267 49.8646 189.996 50.2031ZM238.061 50.2031C237.671 50.0677 236.833 50 235.547 50H224.959C224.079 50 223.376 49.8646 222.852 49.5938C222.327 49.306 222.064 48.7897 222.064 48.0449C222.064 47.5033 222.191 47.0716 222.445 46.75C223.122 46.9193 223.74 47.0039 224.299 47.0039C224.874 47.0039 225.323 46.9447 225.645 46.8262C225.983 46.7077 226.271 46.4961 226.508 46.1914C227.033 45.5482 227.312 44.4902 227.346 43.0176V17.0684C227.346 15.7311 226.973 14.8932 226.229 14.5547C225.992 14.4362 225.67 14.3346 225.264 14.25C224.857 14.1654 224.451 14.0807 224.045 13.9961C223.656 13.8945 223.326 13.776 223.055 13.6406C222.513 13.3698 222.242 12.9128 222.242 12.2695C222.242 11.6432 222.369 11.1777 222.623 10.873C223.012 11.0085 223.85 11.0762 225.137 11.0762H235.471C236.351 11.0762 237.053 11.2201 237.578 11.5078C238.12 11.7786 238.391 12.2865 238.391 13.0312C238.391 13.5898 238.255 14.0215 237.984 14.3262C237.341 14.1569 236.639 14.0723 235.877 14.0723C234.235 14.0723 233.389 15.4095 233.338 18.084V44.0078C233.338 45.3451 233.71 46.1914 234.455 46.5469C234.692 46.6484 235.014 46.7415 235.42 46.8262C235.826 46.9108 236.224 47.0039 236.613 47.1055C237.02 47.1901 237.358 47.3001 237.629 47.4355C238.188 47.7233 238.467 48.1803 238.467 48.8066C238.467 49.3991 238.331 49.8646 238.061 50.2031ZM265.889 21.791C265.889 17.9147 264.509 15.4857 261.75 14.5039C260.802 14.1654 259.693 13.9961 258.424 13.9961C257.154 13.9961 256.062 14.14 255.148 14.4277C254.234 14.7155 253.473 15.1048 252.863 15.5957C251.628 16.5944 251.01 17.9147 251.01 19.5566C251.01 22.0449 252.838 24.1693 256.494 25.9297L259.668 27.4277C261.208 28.1387 262.689 28.8665 264.111 29.6113C265.55 30.3392 266.82 31.1771 267.92 32.125C270.34 34.1901 271.551 36.7461 271.551 39.793C271.551 43.0599 270.129 45.6921 267.285 47.6895C264.628 49.5514 261.293 50.4824 257.281 50.4824C254.099 50.4824 251.289 49.9831 248.852 48.9844C247.057 48.2734 245.779 47.2663 245.018 45.9629C244.628 45.3027 244.434 44.4987 244.434 43.5508C244.434 41.6549 244.908 39.8861 245.855 38.2441C246.177 37.8548 246.617 37.6602 247.176 37.6602C248.259 37.6602 248.885 37.9818 249.055 38.625C249.275 41.5534 250.172 43.6862 251.746 45.0234C253.337 46.3607 255.555 47.0293 258.398 47.0293C261.665 47.0293 263.857 45.9629 264.975 43.8301C265.364 43.0853 265.559 42.2135 265.559 41.2148C265.559 40.1992 265.288 39.2936 264.746 38.498C264.204 37.7025 263.485 36.9661 262.588 36.2891C261.217 35.2734 259.397 34.2917 257.129 33.3438C254.878 32.3958 253.117 31.5664 251.848 30.8555C250.595 30.1445 249.486 29.3151 248.521 28.3672C246.423 26.3021 245.373 23.7546 245.373 20.7246C245.373 17.627 246.702 15.1471 249.359 13.2852C251.915 11.4909 255.216 10.5938 259.262 10.5938C264.391 10.5938 267.742 11.6517 269.316 13.7676C269.892 14.5293 270.18 15.528 270.18 16.7637C270.18 17.9993 270.061 19.0742 269.824 19.9883C269.604 20.9023 269.384 21.4948 269.164 21.7656C268.792 22.2227 268.148 22.4512 267.234 22.4512C266.337 22.4512 265.889 22.2311 265.889 21.791ZM293.387 50.2031C292.997 50.0677 292.16 50 290.873 50H280.285C279.405 50 278.702 49.8646 278.178 49.5938C277.653 49.306 277.391 48.7897 277.391 48.0449C277.391 47.5033 277.518 47.0716 277.771 46.75C278.449 46.9193 279.075 47.0039 279.65 47.0039C280.226 47.0039 280.683 46.9447 281.021 46.8262C281.36 46.6908 281.656 46.4622 281.91 46.1406C282.418 45.4635 282.672 44.3379 282.672 42.7637V16.7891C282.621 15.6042 282.232 14.8509 281.504 14.5293C281.284 14.4277 280.979 14.3346 280.59 14.25L279.371 13.9961C278.542 13.793 278.034 13.5475 277.848 13.2598C277.661 12.9551 277.568 12.6504 277.568 12.3457C277.568 11.7194 277.695 11.2285 277.949 10.873C278.339 11.0085 279.176 11.0762 280.463 11.0762H290.797C291.677 11.0762 292.38 11.2201 292.904 11.5078C293.446 11.7786 293.717 12.2865 293.717 13.0312C293.717 13.5898 293.581 14.0215 293.311 14.3262C292.667 14.1569 291.965 14.0723 291.203 14.0723C289.561 14.0723 288.715 15.4095 288.664 18.084V29.3066H308.977V16.7891C308.926 15.6042 308.536 14.8509 307.809 14.5293C307.589 14.4277 307.284 14.3346 306.895 14.25L305.676 13.9961C304.846 13.793 304.339 13.5475 304.152 13.2598C303.966 12.9551 303.873 12.6504 303.873 12.3457C303.873 11.6686 304 11.1777 304.254 10.873C304.643 11.0085 305.481 11.0762 306.768 11.0762H317.102C317.982 11.0762 318.684 11.2201 319.209 11.5078C319.751 11.7786 320.021 12.2865 320.021 13.0312C320.021 13.5898 319.886 14.0215 319.615 14.3262C318.972 14.1569 318.27 14.0723 317.508 14.0723C315.866 14.0723 315.02 15.4095 314.969 18.084V44.0078C314.969 44.9557 315.113 45.582 315.4 45.8867C315.824 46.3438 316.348 46.64 316.975 46.7754C317.601 46.8939 318.117 47.0039 318.523 47.1055C318.93 47.1901 319.268 47.3001 319.539 47.4355C320.081 47.7064 320.352 48.1634 320.352 48.8066C320.352 49.3991 320.216 49.8646 319.945 50.2031C319.556 50.0677 318.718 50 317.432 50H306.844C305.964 50 305.261 49.8646 304.736 49.5938C304.212 49.306 303.949 48.7897 303.949 48.0449C303.949 47.5033 304.076 47.0716 304.33 46.75C304.973 46.9193 305.574 47.0039 306.133 47.0039C306.691 47.0039 307.123 46.9447 307.428 46.8262C307.732 46.7077 307.995 46.4961 308.215 46.1914C308.689 45.5651 308.943 44.5072 308.977 43.0176V32.8105H288.664V44.0078C288.664 45.3451 289.036 46.1914 289.781 46.5469C290.018 46.6484 290.34 46.7415 290.746 46.8262C291.152 46.9108 291.55 47.0039 291.939 47.1055C292.346 47.1901 292.684 47.3001 292.955 47.4355C293.514 47.7233 293.793 48.1803 293.793 48.8066C293.793 49.3991 293.658 49.8646 293.387 50.2031ZM341.451 50.2031C341.062 50.0677 340.224 50 338.938 50H328.35C327.469 50 326.767 49.8646 326.242 49.5938C325.717 49.306 325.455 48.7897 325.455 48.0449C325.455 47.5033 325.582 47.0716 325.836 46.75C326.513 46.9193 327.131 47.0039 327.689 47.0039C328.265 47.0039 328.714 46.9447 329.035 46.8262C329.374 46.7077 329.661 46.4961 329.898 46.1914C330.423 45.5482 330.702 44.4902 330.736 43.0176V17.0684C330.736 15.7311 330.364 14.8932 329.619 14.5547C329.382 14.4362 329.061 14.3346 328.654 14.25C328.248 14.1654 327.842 14.0807 327.436 13.9961C327.046 13.8945 326.716 13.776 326.445 13.6406C325.904 13.3698 325.633 12.9128 325.633 12.2695C325.633 11.6432 325.76 11.1777 326.014 10.873C326.403 11.0085 327.241 11.0762 328.527 11.0762H338.861C339.742 11.0762 340.444 11.2201 340.969 11.5078C341.51 11.7786 341.781 12.2865 341.781 13.0312C341.781 13.5898 341.646 14.0215 341.375 14.3262C340.732 14.1569 340.029 14.0723 339.268 14.0723C337.626 14.0723 336.779 15.4095 336.729 18.084V44.0078C336.729 45.3451 337.101 46.1914 337.846 46.5469C338.083 46.6484 338.404 46.7415 338.811 46.8262C339.217 46.9108 339.615 47.0039 340.004 47.1055C340.41 47.1901 340.749 47.3001 341.02 47.4355C341.578 47.7233 341.857 48.1803 341.857 48.8066C341.857 49.3991 341.722 49.8646 341.451 50.2031ZM350.084 50C347.816 50 346.682 49.3483 346.682 48.0449C346.682 47.4525 346.817 47.0378 347.088 46.8008C347.579 46.9362 348.087 47.0039 348.611 47.0039C349.153 47.0039 349.618 46.9362 350.008 46.8008C350.414 46.6654 350.77 46.4707 351.074 46.2168C351.684 45.6921 351.988 44.9557 351.988 44.0078V16.3574C351.954 15.6803 351.811 15.1725 351.557 14.834C351.303 14.4954 350.922 14.2585 350.414 14.123C349.906 13.9707 349.483 13.8607 349.145 13.793C348.823 13.7253 348.527 13.6406 348.256 13.5391C347.663 13.2852 347.367 12.972 347.367 12.5996C347.367 11.821 347.494 11.2708 347.748 10.9492C348.104 11.0339 348.645 11.0762 349.373 11.0762H354.324C355.814 11.0762 357.151 11.8294 358.336 13.3359L379.689 40.4023V16.7129C379.673 16.0358 379.529 15.4688 379.258 15.0117C379.004 14.5547 378.564 14.25 377.938 14.0977C377.328 13.9453 376.786 13.8353 376.312 13.7676C375.839 13.6829 375.415 13.5729 375.043 13.4375C374.247 13.1667 373.85 12.7266 373.85 12.1172C373.85 11.6094 373.985 11.2201 374.256 10.9492C374.611 11.0339 375.153 11.0762 375.881 11.0762H386.113C388.382 11.0762 389.516 11.5586 389.516 12.5234C389.516 13.3359 389.389 13.8861 389.135 14.1738C388.712 14.0553 388.221 13.9961 387.662 13.9961C387.12 13.9961 386.646 14.013 386.24 14.0469C385.834 14.0638 385.47 14.1654 385.148 14.3516C384.438 14.7409 384.065 15.5365 384.031 16.7383V49.2891C384.031 49.7799 383.896 50.0762 383.625 50.1777C383.354 50.2962 382.863 50.3555 382.152 50.3555C380.951 50.3555 379.664 49.4668 378.293 47.6895L356.33 20.0645V44.3633C356.415 45.819 357.1 46.7161 358.387 47.0547C358.878 47.1562 359.36 47.2409 359.834 47.3086C360.325 47.3763 360.757 47.4609 361.129 47.5625C361.992 47.7826 362.424 48.1719 362.424 48.7305C362.424 49.3398 362.297 49.8053 362.043 50.127C361.688 50.0423 361.146 50 360.418 50H350.084ZM430.039 31.5156C430.242 32.0911 430.344 32.5905 430.344 33.0137C430.344 33.4368 430.276 33.7331 430.141 33.9023C430.022 34.0716 429.861 34.1986 429.658 34.2832C429.455 34.3678 429.218 34.4355 428.947 34.4863C428.676 34.5371 428.346 34.6725 427.957 34.8926C427.212 35.3158 426.84 36.4329 426.84 38.2441V44.1602C426.62 44.6172 426.154 45.2096 425.443 45.9375C424.732 46.6654 423.768 47.3678 422.549 48.0449C419.57 49.7038 416.294 50.5332 412.723 50.5332C409.168 50.5332 406.223 50.0677 403.887 49.1367C401.551 48.2057 399.596 46.9108 398.021 45.252C394.856 41.9173 393.273 37.474 393.273 31.9219C393.273 28.5026 393.815 25.4642 394.898 22.8066C395.999 20.1491 397.48 17.9232 399.342 16.1289C403.15 12.4388 407.924 10.5938 413.662 10.5938C418.249 10.5938 421.677 11.4232 423.945 13.082C425.74 14.4023 426.637 16.0697 426.637 18.084C426.637 19.3366 426.273 20.3438 425.545 21.1055C424.851 21.8333 423.945 22.1973 422.828 22.1973C421.846 22.1973 421.152 22.0703 420.746 21.8164C420.831 21.2747 420.873 20.6061 420.873 19.8105C420.873 19.015 420.695 18.2448 420.34 17.5C420.001 16.7383 419.493 16.1374 418.816 15.6973C417.648 14.9186 415.888 14.5293 413.535 14.5293C411.182 14.5293 409.168 14.834 407.492 15.4434C405.833 16.0527 404.428 16.9922 403.277 18.2617C400.891 20.8685 399.697 24.7109 399.697 29.7891C399.697 40.944 404.454 46.5215 413.967 46.5215C416.218 46.5215 418.156 46.1745 419.781 45.4805C420.306 45.2604 420.712 45.015 421 44.7441L420.975 37.4824C420.975 36.2637 420.179 35.4258 418.588 34.9688C418.199 34.8672 417.801 34.7741 417.395 34.6895C416.988 34.6048 416.582 34.5202 416.176 34.4355C415.786 34.334 415.456 34.207 415.186 34.0547C414.644 33.7839 414.373 33.3353 414.373 32.709C414.373 32.0658 414.5 31.6003 414.754 31.3125C415.143 31.4479 415.981 31.5156 417.268 31.5156H430.039Z" fill="black"/>
</svg>
