<svg width="65" height="45" viewBox="0 0 65 45" fill="none" xmlns="http://www.w3.org/2000/svg">
<rect y="0.000305176" width="65" height="45" fill="#F3F3F3"/>
<rect x="29" width="6" height="45" fill="#D80027"/>
<rect y="20" width="65" height="6" fill="#D80027"/>
<path d="M17.9304 28L0 40.1928V45L25 28H17.9304Z" fill="#D80027"/>
<path d="M14 28L0 37V28H14Z" fill="#0052B4"/>
<path d="M27 28V45H3L27 28Z" fill="#0052B4"/>
<path d="M46.3524 17.9997L65 5.08965V-0.000305593L39 17.9997H46.3524Z" fill="#D80027"/>
<path d="M51 18L65 8V18H51Z" fill="#0052B4"/>
<path d="M37 18V0L63 0L37 18Z" fill="#0052B4"/>
<path d="M17.9304 18L0 5.08995L0 -4.17233e-07L25 18H17.9304Z" fill="#D80027"/>
<path d="M16 18L0 7L0 18L16 18Z" fill="#0052B4"/>
<path d="M27 16L27 0L5 0L27 16Z" fill="#0052B4"/>
<path d="M46.3524 28L65 40.1928V45L39 28H46.3524Z" fill="#D80027"/>
<path d="M48 28L65 39V28L48 28Z" fill="#0052B4"/>
<path d="M37 30V45H60L37 30Z" fill="#0052B4"/>
</svg>
