<svg width="54" height="40" viewBox="0 0 54 40" fill="none" xmlns="http://www.w3.org/2000/svg">
<path d="M26.6667 40L28.6933 32C20 31.44 12.24 27.7333 10 22.88C9.76 24.16 9.41333 25.3333 8.88 26.2133C7.12 29.3333 3.54667 29.3333 0 29.3333C2.93333 29.3333 4 25.1467 4 20C4 14.8533 2.93333 10.6667 0 10.6667C3.54667 10.6667 7.12 10.6667 8.88 13.7867C9.41333 14.6667 9.76 15.84 10 17.12C11.7333 13.3333 16.8533 10.2667 23.0933 8.85333L18.6667 0C24 0 29.3333 1.19209e-07 32.88 1.78667C35.8933 3.28 37.6267 6.05333 39.1733 9.01333C46.96 10.88 53.3333 15.0933 53.3333 20C53.3333 25.0133 46.6667 29.3333 38.6667 31.0933C36.4533 34.0267 34.2933 36.7467 32.4533 38.2133C30.2133 40 28.4533 40 26.6667 40ZM40 16C39.2928 16 38.6145 16.281 38.1144 16.781C37.6143 17.2811 37.3333 17.9594 37.3333 18.6667C37.3333 19.3739 37.6143 20.0522 38.1144 20.5523C38.6145 21.0524 39.2928 21.3333 40 21.3333C40.7072 21.3333 41.3855 21.0524 41.8856 20.5523C42.3857 20.0522 42.6667 19.3739 42.6667 18.6667C42.6667 17.9594 42.3857 17.2811 41.8856 16.781C41.3855 16.281 40.7072 16 40 16Z" fill="black"/>
</svg>
