<svg width="26" height="40" viewBox="0 0 26 40" fill="none" xmlns="http://www.w3.org/2000/svg">
<path d="M26 8C26 11.64 23.52 14.82 20 15.72V30C20 32.6522 18.9464 35.1957 17.0711 37.0711C15.1957 38.9464 12.6522 40 10 40C7.34784 40 4.8043 38.9464 2.92893 37.0711C1.05357 35.1957 0 32.6522 0 30V20L10 30H4C4 31.5913 4.63214 33.1174 5.75736 34.2426C6.88258 35.3679 8.4087 36 10 36C11.5913 36 13.1174 35.3679 14.2426 34.2426C15.3679 33.1174 16 31.5913 16 30V15.72C12.46 14.8 10 11.6 10 7.94C10 3.52 13.6 0 18 0C22.44 0 26 3.58 26 8ZM18 12C19.0609 12 20.0783 11.5786 20.8284 10.8284C21.5786 10.0783 22 9.06087 22 8C22 6.93913 21.5786 5.92172 20.8284 5.17157C20.0783 4.42143 19.0609 4 18 4C16.9391 4 15.9217 4.42143 15.1716 5.17157C14.4214 5.92172 14 6.93913 14 8C14 9.06087 14.4214 10.0783 15.1716 10.8284C15.9217 11.5786 16.9391 12 18 12Z" fill="black"/>
</svg>
