<svg width="50" height="24" viewBox="0 0 50 24" fill="none" xmlns="http://www.w3.org/2000/svg">
<path d="M46.2869 10.9034C46.4464 10.5609 47.5363 9.11622 48.5231 7.61869C48.524 7.61764 48.5248 7.6166 48.5253 7.61568C48.748 7.2778 48.965 6.93743 49.1655 6.60623C49.1712 6.59693 49.1768 6.58749 49.1824 6.57818C49.2149 6.52419 51.5231 2.82375 48.2355 4.32233C48.2355 4.32259 48.2352 4.32298 48.235 4.32325C47.6173 4.64003 46.8317 5.11237 45.8439 5.77437C43.6891 7.21882 39.3058 9.33326 39.3058 9.33326C39.3058 9.33326 38.543 9.74532 38.04 9.43142C35.4979 7.84556 31.794 5.0285 26.9112 3.45993C26.8298 3.43372 26.7266 3.37173 26.8669 3.24185L28.958 1.77944C28.958 1.77944 29.1218 1.6379 28.9114 1.56948C27.8766 1.23226 23.5663 -0.213106 19.8366 1.11574C19.0769 1.38639 18.4533 1.60867 17.9406 1.79137C17.7201 1.87001 17.4961 1.96241 17.0495 2.01759C6.87845 2.36543 0 9.83156 0 12.7849C0 14.767 1.06869 16.097 4.97345 17.9459C5.05182 17.9335 5.6479 18.3614 6.95735 17.968C7.30833 17.8624 9.80102 16.9236 9.9001 16.8813C9.99945 16.836 10.0639 16.8135 10.1051 16.8202C10.158 16.8286 10.197 16.9463 10.1967 16.9702C10.1884 17.6762 8.8651 18.248 8.11372 18.8754C7.98475 18.9356 7.95015 19.2351 8.17597 19.3321C8.17623 19.3321 10.8295 20.7546 15.0315 21.197C15.3712 21.2327 19.7943 24.0668 24.2545 23.3065C26.6135 22.9043 27.7361 22.7667 28.2484 22.6254C28.6956 22.5022 28.4821 22.3604 28.4821 22.3604L26.2463 20.579C26.0949 20.4111 26.2173 20.2821 26.3441 20.2462C31.309 18.8335 35.2346 16.6065 37.5725 14.6986C37.8873 14.4416 38.7055 15.0526 39.2897 15.3477C41.2295 16.3277 49.2816 19.647 49.9452 18.9444C50.0024 18.8851 50.0064 18.7969 49.9482 18.6757C48.8152 16.2957 44.72 14.2657 46.2869 10.9034ZM8.23534 10.6742C7.51908 10.6742 6.93847 10.0828 6.93847 9.35344C6.93847 8.62408 7.51908 8.03285 8.23534 8.03285C8.9516 8.03285 9.53234 8.62408 9.53234 9.35344C9.53234 10.0828 8.9516 10.6742 8.23534 10.6742ZM14.0392 18.1884C13.9594 18.2601 13.8866 18.3683 13.9288 18.2126C13.9288 18.2126 15.9506 15.1707 16.2128 11.2387C16.4091 8.29183 14.4458 4.68288 14.4458 4.68288C14.4458 4.68288 14.4496 4.57751 14.5185 4.66073C15.2175 5.50609 22.0996 10.9436 14.0392 18.1884Z" fill="white"/>
</svg>
